<mxfile host="app.diagrams.net" modified="2023-10-22T13:39:00.725Z" agent="Mozilla/5.0 (Windows NT 10.0; Win64; x64) AppleWebKit/537.36 (KHTML, like Gecko) Chrome/118.0.0.0 Safari/537.36" etag="s_UHk9uMmGBvHpC-q8a0" version="22.0.6" type="device">
  <diagram name="Страница — 1" id="gIKp3Uan3dsmI0In-pl2">
    <mxGraphModel dx="614" dy="-869" grid="1" gridSize="10" guides="1" tooltips="1" connect="1" arrows="1" fold="1" page="1" pageScale="1" pageWidth="827" pageHeight="1169" background="none" math="0" shadow="0">
      <root>
        <mxCell id="0" />
        <mxCell id="1" parent="0" />
        <mxCell id="M9uhc5HD6TSEB5luogaD-2" value="" style="endArrow=classic;html=1;rounded=0;entryX=0;entryY=0.5;entryDx=0;entryDy=0;" parent="1" edge="1">
          <mxGeometry width="50" height="50" relative="1" as="geometry">
            <mxPoint x="107.56" y="1520.5" as="sourcePoint" />
            <mxPoint x="207.56" y="1520.5" as="targetPoint" />
          </mxGeometry>
        </mxCell>
        <mxCell id="M9uhc5HD6TSEB5luogaD-71" value="" style="rounded=0;whiteSpace=wrap;html=1;gradientColor=none;glass=0;shadow=0;" parent="1" vertex="1">
          <mxGeometry x="207.33999999999997" y="1475" width="155" height="90" as="geometry" />
        </mxCell>
        <mxCell id="M9uhc5HD6TSEB5luogaD-72" value="" style="endArrow=none;html=1;rounded=0;exitX=0.003;exitY=0.15;exitDx=0;exitDy=0;entryX=0.077;entryY=0;entryDx=0;entryDy=0;entryPerimeter=0;jumpSize=100;endSize=6;jumpStyle=none;exitPerimeter=0;" parent="1" source="M9uhc5HD6TSEB5luogaD-71" target="M9uhc5HD6TSEB5luogaD-71" edge="1">
          <mxGeometry width="50" height="50" relative="1" as="geometry">
            <mxPoint x="207.33999999999997" y="1488.32" as="sourcePoint" />
            <mxPoint x="221.85999999999996" y="1475" as="targetPoint" />
          </mxGeometry>
        </mxCell>
        <mxCell id="M9uhc5HD6TSEB5luogaD-73" value="0р." style="text;html=1;align=center;verticalAlign=middle;resizable=0;points=[];autosize=1;strokeColor=none;fillColor=none;fontSize=5;" parent="1" vertex="1">
          <mxGeometry x="203.33999999999997" y="1475" width="30" height="20" as="geometry" />
        </mxCell>
        <mxCell id="M9uhc5HD6TSEB5luogaD-74" value="" style="endArrow=none;html=1;rounded=0;exitX=0.002;exitY=0.635;exitDx=0;exitDy=0;exitPerimeter=0;entryX=1.005;entryY=0.786;entryDx=0;entryDy=0;entryPerimeter=0;" parent="1" edge="1">
          <mxGeometry width="50" height="50" relative="1" as="geometry">
            <mxPoint x="207.57999999999998" y="1545.1" as="sourcePoint" />
            <mxPoint x="363.1150000000001" y="1544.74" as="targetPoint" />
          </mxGeometry>
        </mxCell>
        <mxCell id="M9uhc5HD6TSEB5luogaD-75" value="1.1.1" style="text;html=1;align=center;verticalAlign=middle;resizable=0;points=[];autosize=1;strokeColor=none;fillColor=none;fontSize=8;" parent="1" vertex="1">
          <mxGeometry x="204.33999999999997" y="1546" width="40" height="20" as="geometry" />
        </mxCell>
        <mxCell id="M9uhc5HD6TSEB5luogaD-76" value="&lt;p style=&quot;margin: 0cm; text-indent: 35.45pt;&quot; class=&quot;MsoListParagraph&quot;&gt;Инициирование регистрации&lt;br&gt;&lt;/p&gt;" style="text;html=1;align=center;verticalAlign=middle;resizable=0;points=[];autosize=1;strokeColor=none;fillColor=none;fontSize=9;" parent="1" vertex="1">
          <mxGeometry x="166.33999999999997" y="1502" width="190" height="20" as="geometry" />
        </mxCell>
        <mxCell id="M9uhc5HD6TSEB5luogaD-77" value="" style="endArrow=none;html=1;rounded=0;entryX=0.5;entryY=1;entryDx=0;entryDy=0;" parent="1" edge="1">
          <mxGeometry width="50" height="50" relative="1" as="geometry">
            <mxPoint x="284.78000000000003" y="1545" as="sourcePoint" />
            <mxPoint x="284.78000000000003" y="1565" as="targetPoint" />
          </mxGeometry>
        </mxCell>
        <mxCell id="M9uhc5HD6TSEB5luogaD-78" value="" style="rounded=0;whiteSpace=wrap;html=1;gradientColor=none;glass=0;shadow=0;" parent="1" vertex="1">
          <mxGeometry x="403.12" y="1474" width="155" height="90" as="geometry" />
        </mxCell>
        <mxCell id="M9uhc5HD6TSEB5luogaD-79" value="" style="endArrow=none;html=1;rounded=0;exitX=0.003;exitY=0.15;exitDx=0;exitDy=0;entryX=0.077;entryY=0;entryDx=0;entryDy=0;entryPerimeter=0;jumpSize=100;endSize=6;jumpStyle=none;exitPerimeter=0;" parent="1" source="M9uhc5HD6TSEB5luogaD-78" target="M9uhc5HD6TSEB5luogaD-78" edge="1">
          <mxGeometry width="50" height="50" relative="1" as="geometry">
            <mxPoint x="403.12" y="1487.32" as="sourcePoint" />
            <mxPoint x="417.64" y="1474" as="targetPoint" />
          </mxGeometry>
        </mxCell>
        <mxCell id="M9uhc5HD6TSEB5luogaD-80" value="0р." style="text;html=1;align=center;verticalAlign=middle;resizable=0;points=[];autosize=1;strokeColor=none;fillColor=none;fontSize=5;" parent="1" vertex="1">
          <mxGeometry x="399.12" y="1474" width="30" height="20" as="geometry" />
        </mxCell>
        <mxCell id="M9uhc5HD6TSEB5luogaD-81" value="" style="endArrow=none;html=1;rounded=0;exitX=0.002;exitY=0.635;exitDx=0;exitDy=0;exitPerimeter=0;entryX=1.005;entryY=0.786;entryDx=0;entryDy=0;entryPerimeter=0;" parent="1" edge="1">
          <mxGeometry width="50" height="50" relative="1" as="geometry">
            <mxPoint x="403.36" y="1544.1" as="sourcePoint" />
            <mxPoint x="558.895" y="1543.74" as="targetPoint" />
          </mxGeometry>
        </mxCell>
        <mxCell id="M9uhc5HD6TSEB5luogaD-82" value="1.1.2" style="text;html=1;align=center;verticalAlign=middle;resizable=0;points=[];autosize=1;strokeColor=none;fillColor=none;fontSize=8;" parent="1" vertex="1">
          <mxGeometry x="400.12" y="1545" width="40" height="20" as="geometry" />
        </mxCell>
        <mxCell id="M9uhc5HD6TSEB5luogaD-83" value="" style="endArrow=none;html=1;rounded=0;entryX=0.5;entryY=1;entryDx=0;entryDy=0;" parent="1" edge="1">
          <mxGeometry width="50" height="50" relative="1" as="geometry">
            <mxPoint x="480.56" y="1544" as="sourcePoint" />
            <mxPoint x="480.56" y="1564" as="targetPoint" />
          </mxGeometry>
        </mxCell>
        <mxCell id="M9uhc5HD6TSEB5luogaD-84" value="" style="endArrow=classic;html=1;rounded=0;exitX=1;exitY=0.5;exitDx=0;exitDy=0;" parent="1" source="M9uhc5HD6TSEB5luogaD-71" target="M9uhc5HD6TSEB5luogaD-78" edge="1">
          <mxGeometry width="50" height="50" relative="1" as="geometry">
            <mxPoint x="367.12" y="1568" as="sourcePoint" />
            <mxPoint x="407.12" y="1518" as="targetPoint" />
          </mxGeometry>
        </mxCell>
        <mxCell id="M9uhc5HD6TSEB5luogaD-85" value="" style="rounded=0;whiteSpace=wrap;html=1;gradientColor=none;glass=0;shadow=0;" parent="1" vertex="1">
          <mxGeometry x="403.12" y="1597.5" width="155" height="90" as="geometry" />
        </mxCell>
        <mxCell id="M9uhc5HD6TSEB5luogaD-86" value="" style="endArrow=none;html=1;rounded=0;exitX=0.003;exitY=0.15;exitDx=0;exitDy=0;entryX=0.077;entryY=0;entryDx=0;entryDy=0;entryPerimeter=0;jumpSize=100;endSize=6;jumpStyle=none;exitPerimeter=0;" parent="1" source="M9uhc5HD6TSEB5luogaD-85" target="M9uhc5HD6TSEB5luogaD-85" edge="1">
          <mxGeometry width="50" height="50" relative="1" as="geometry">
            <mxPoint x="403.12" y="1610.82" as="sourcePoint" />
            <mxPoint x="417.64" y="1597.5" as="targetPoint" />
          </mxGeometry>
        </mxCell>
        <mxCell id="M9uhc5HD6TSEB5luogaD-87" value="0р." style="text;html=1;align=center;verticalAlign=middle;resizable=0;points=[];autosize=1;strokeColor=none;fillColor=none;fontSize=5;" parent="1" vertex="1">
          <mxGeometry x="399.12" y="1597.5" width="30" height="20" as="geometry" />
        </mxCell>
        <mxCell id="M9uhc5HD6TSEB5luogaD-88" value="" style="endArrow=none;html=1;rounded=0;exitX=0.002;exitY=0.635;exitDx=0;exitDy=0;exitPerimeter=0;entryX=1.005;entryY=0.786;entryDx=0;entryDy=0;entryPerimeter=0;" parent="1" edge="1">
          <mxGeometry width="50" height="50" relative="1" as="geometry">
            <mxPoint x="403.36" y="1667.6" as="sourcePoint" />
            <mxPoint x="558.895" y="1667.24" as="targetPoint" />
          </mxGeometry>
        </mxCell>
        <mxCell id="M9uhc5HD6TSEB5luogaD-89" value="1.1.3" style="text;html=1;align=center;verticalAlign=middle;resizable=0;points=[];autosize=1;strokeColor=none;fillColor=none;fontSize=8;" parent="1" vertex="1">
          <mxGeometry x="400.12" y="1668.5" width="40" height="20" as="geometry" />
        </mxCell>
        <mxCell id="M9uhc5HD6TSEB5luogaD-90" value="&lt;p style=&quot;border-color: var(--border-color); margin: 0cm; text-indent: 35.45pt;&quot; class=&quot;MsoListParagraph&quot;&gt;Проверка данных на соответсвие&amp;nbsp;&lt;/p&gt;&lt;p style=&quot;border-color: var(--border-color); margin: 0cm; text-indent: 35.45pt;&quot; class=&quot;MsoListParagraph&quot;&gt;нормам безопасносьи&lt;/p&gt;" style="text;html=1;align=center;verticalAlign=middle;resizable=0;points=[];autosize=1;strokeColor=none;fillColor=none;fontSize=9;" parent="1" vertex="1">
          <mxGeometry x="352.12" y="1614.5" width="210" height="40" as="geometry" />
        </mxCell>
        <mxCell id="M9uhc5HD6TSEB5luogaD-91" value="" style="endArrow=none;html=1;rounded=0;entryX=0.5;entryY=1;entryDx=0;entryDy=0;" parent="1" edge="1">
          <mxGeometry width="50" height="50" relative="1" as="geometry">
            <mxPoint x="480.56" y="1667.5" as="sourcePoint" />
            <mxPoint x="480.56" y="1687.5" as="targetPoint" />
          </mxGeometry>
        </mxCell>
        <mxCell id="M9uhc5HD6TSEB5luogaD-92" value="" style="endArrow=classic;html=1;rounded=0;exitX=0.5;exitY=1;exitDx=0;exitDy=0;entryX=0.5;entryY=0;entryDx=0;entryDy=0;" parent="1" edge="1">
          <mxGeometry width="50" height="50" relative="1" as="geometry">
            <mxPoint x="494.61999999999995" y="1564" as="sourcePoint" />
            <mxPoint x="494.61999999999995" y="1597.5" as="targetPoint" />
          </mxGeometry>
        </mxCell>
        <mxCell id="M9uhc5HD6TSEB5luogaD-93" value="" style="rounded=0;whiteSpace=wrap;html=1;gradientColor=none;glass=0;shadow=0;" parent="1" vertex="1">
          <mxGeometry x="206.56" y="1598" width="155" height="90" as="geometry" />
        </mxCell>
        <mxCell id="M9uhc5HD6TSEB5luogaD-94" value="" style="endArrow=none;html=1;rounded=0;exitX=0.003;exitY=0.15;exitDx=0;exitDy=0;entryX=0.077;entryY=0;entryDx=0;entryDy=0;entryPerimeter=0;jumpSize=100;endSize=6;jumpStyle=none;exitPerimeter=0;" parent="1" source="M9uhc5HD6TSEB5luogaD-93" target="M9uhc5HD6TSEB5luogaD-93" edge="1">
          <mxGeometry width="50" height="50" relative="1" as="geometry">
            <mxPoint x="206.56" y="1611.32" as="sourcePoint" />
            <mxPoint x="221.07999999999998" y="1598" as="targetPoint" />
          </mxGeometry>
        </mxCell>
        <mxCell id="M9uhc5HD6TSEB5luogaD-95" value="0р." style="text;html=1;align=center;verticalAlign=middle;resizable=0;points=[];autosize=1;strokeColor=none;fillColor=none;fontSize=5;" parent="1" vertex="1">
          <mxGeometry x="202.56" y="1598" width="30" height="20" as="geometry" />
        </mxCell>
        <mxCell id="M9uhc5HD6TSEB5luogaD-96" value="" style="endArrow=none;html=1;rounded=0;exitX=0.002;exitY=0.635;exitDx=0;exitDy=0;exitPerimeter=0;entryX=1.005;entryY=0.786;entryDx=0;entryDy=0;entryPerimeter=0;" parent="1" edge="1">
          <mxGeometry width="50" height="50" relative="1" as="geometry">
            <mxPoint x="206.8" y="1668.1" as="sourcePoint" />
            <mxPoint x="362.3350000000001" y="1667.74" as="targetPoint" />
          </mxGeometry>
        </mxCell>
        <mxCell id="M9uhc5HD6TSEB5luogaD-97" value="1.1.4" style="text;html=1;align=center;verticalAlign=middle;resizable=0;points=[];autosize=1;strokeColor=none;fillColor=none;fontSize=8;" parent="1" vertex="1">
          <mxGeometry x="203.56" y="1669" width="40" height="20" as="geometry" />
        </mxCell>
        <mxCell id="M9uhc5HD6TSEB5luogaD-98" value="&lt;p style=&quot;border-color: var(--border-color); margin: 0cm; text-indent: 35.45pt;&quot; class=&quot;MsoListParagraph&quot;&gt;Создание учетной записи&lt;br&gt;&lt;/p&gt;" style="text;html=1;align=center;verticalAlign=middle;resizable=0;points=[];autosize=1;strokeColor=none;fillColor=none;fontSize=9;" parent="1" vertex="1">
          <mxGeometry x="170.56" y="1627" width="180" height="20" as="geometry" />
        </mxCell>
        <mxCell id="M9uhc5HD6TSEB5luogaD-99" value="" style="endArrow=none;html=1;rounded=0;entryX=0.5;entryY=1;entryDx=0;entryDy=0;" parent="1" edge="1">
          <mxGeometry width="50" height="50" relative="1" as="geometry">
            <mxPoint x="284" y="1668" as="sourcePoint" />
            <mxPoint x="284" y="1688" as="targetPoint" />
          </mxGeometry>
        </mxCell>
        <mxCell id="M9uhc5HD6TSEB5luogaD-100" value="" style="endArrow=none;html=1;rounded=0;exitX=1;exitY=0.5;exitDx=0;exitDy=0;startArrow=classic;startFill=1;endFill=0;" parent="1" edge="1">
          <mxGeometry width="50" height="50" relative="1" as="geometry">
            <mxPoint x="361.56" y="1642.1399999999999" as="sourcePoint" />
            <mxPoint x="402.56" y="1642.1399999999999" as="targetPoint" />
          </mxGeometry>
        </mxCell>
        <mxCell id="M9uhc5HD6TSEB5luogaD-101" value="Учетная запись &lt;br&gt;нового пользователя" style="text;html=1;align=center;verticalAlign=middle;resizable=0;points=[];autosize=1;strokeColor=none;fillColor=none;fontSize=7;" parent="1" vertex="1">
          <mxGeometry x="103.56" y="1598.5" width="90" height="30" as="geometry" />
        </mxCell>
        <mxCell id="M9uhc5HD6TSEB5luogaD-102" value="Запрос на регистрацию&lt;br&gt;нового пользователя" style="text;html=1;align=center;verticalAlign=middle;resizable=0;points=[];autosize=1;strokeColor=none;fillColor=none;fontSize=7;" parent="1" vertex="1">
          <mxGeometry x="106.56" y="1480" width="100" height="30" as="geometry" />
        </mxCell>
        <mxCell id="M9uhc5HD6TSEB5luogaD-103" value="Заполнение &lt;br&gt;регистрационной формы" style="text;html=1;align=center;verticalAlign=middle;resizable=0;points=[];autosize=1;strokeColor=none;fillColor=none;fontSize=9;" parent="1" vertex="1">
          <mxGeometry x="414.56" y="1492" width="130" height="40" as="geometry" />
        </mxCell>
        <mxCell id="M9uhc5HD6TSEB5luogaD-104" value="" style="rounded=0;whiteSpace=wrap;html=1;gradientColor=none;glass=0;shadow=0;" parent="1" vertex="1">
          <mxGeometry x="762.3399999999999" y="1473.5" width="155" height="90" as="geometry" />
        </mxCell>
        <mxCell id="M9uhc5HD6TSEB5luogaD-105" value="" style="endArrow=none;html=1;rounded=0;exitX=0.003;exitY=0.15;exitDx=0;exitDy=0;entryX=0.077;entryY=0;entryDx=0;entryDy=0;entryPerimeter=0;jumpSize=100;endSize=6;jumpStyle=none;exitPerimeter=0;" parent="1" source="M9uhc5HD6TSEB5luogaD-104" target="M9uhc5HD6TSEB5luogaD-104" edge="1">
          <mxGeometry width="50" height="50" relative="1" as="geometry">
            <mxPoint x="762.3399999999999" y="1486.82" as="sourcePoint" />
            <mxPoint x="776.8599999999999" y="1473.5" as="targetPoint" />
          </mxGeometry>
        </mxCell>
        <mxCell id="M9uhc5HD6TSEB5luogaD-106" value="0р." style="text;html=1;align=center;verticalAlign=middle;resizable=0;points=[];autosize=1;strokeColor=none;fillColor=none;fontSize=5;" parent="1" vertex="1">
          <mxGeometry x="758.3399999999999" y="1473.5" width="30" height="20" as="geometry" />
        </mxCell>
        <mxCell id="M9uhc5HD6TSEB5luogaD-107" value="" style="endArrow=none;html=1;rounded=0;exitX=0.002;exitY=0.635;exitDx=0;exitDy=0;exitPerimeter=0;entryX=1.005;entryY=0.786;entryDx=0;entryDy=0;entryPerimeter=0;" parent="1" edge="1">
          <mxGeometry width="50" height="50" relative="1" as="geometry">
            <mxPoint x="762.5799999999999" y="1543.6" as="sourcePoint" />
            <mxPoint x="918.115" y="1543.24" as="targetPoint" />
          </mxGeometry>
        </mxCell>
        <mxCell id="M9uhc5HD6TSEB5luogaD-108" value="1.2.1" style="text;html=1;align=center;verticalAlign=middle;resizable=0;points=[];autosize=1;strokeColor=none;fillColor=none;fontSize=8;" parent="1" vertex="1">
          <mxGeometry x="759.3399999999999" y="1544.5" width="40" height="20" as="geometry" />
        </mxCell>
        <mxCell id="M9uhc5HD6TSEB5luogaD-109" value="&lt;p style=&quot;margin: 0cm; text-indent: 35.45pt;&quot; class=&quot;MsoListParagraph&quot;&gt;Инициация аутентификации&lt;br&gt;&lt;/p&gt;" style="text;html=1;align=center;verticalAlign=middle;resizable=0;points=[];autosize=1;strokeColor=none;fillColor=none;fontSize=9;" parent="1" vertex="1">
          <mxGeometry x="721.3399999999999" y="1500.5" width="190" height="20" as="geometry" />
        </mxCell>
        <mxCell id="M9uhc5HD6TSEB5luogaD-110" value="" style="endArrow=none;html=1;rounded=0;entryX=0.5;entryY=1;entryDx=0;entryDy=0;" parent="1" edge="1">
          <mxGeometry width="50" height="50" relative="1" as="geometry">
            <mxPoint x="839.78" y="1543.5" as="sourcePoint" />
            <mxPoint x="839.78" y="1563.5" as="targetPoint" />
          </mxGeometry>
        </mxCell>
        <mxCell id="M9uhc5HD6TSEB5luogaD-111" value="" style="rounded=0;whiteSpace=wrap;html=1;gradientColor=none;glass=0;shadow=0;" parent="1" vertex="1">
          <mxGeometry x="958.1199999999999" y="1472.5" width="155" height="90" as="geometry" />
        </mxCell>
        <mxCell id="M9uhc5HD6TSEB5luogaD-112" value="" style="endArrow=none;html=1;rounded=0;exitX=0.003;exitY=0.15;exitDx=0;exitDy=0;entryX=0.077;entryY=0;entryDx=0;entryDy=0;entryPerimeter=0;jumpSize=100;endSize=6;jumpStyle=none;exitPerimeter=0;" parent="1" source="M9uhc5HD6TSEB5luogaD-111" target="M9uhc5HD6TSEB5luogaD-111" edge="1">
          <mxGeometry width="50" height="50" relative="1" as="geometry">
            <mxPoint x="958.1199999999999" y="1485.82" as="sourcePoint" />
            <mxPoint x="972.6399999999999" y="1472.5" as="targetPoint" />
          </mxGeometry>
        </mxCell>
        <mxCell id="M9uhc5HD6TSEB5luogaD-113" value="0р." style="text;html=1;align=center;verticalAlign=middle;resizable=0;points=[];autosize=1;strokeColor=none;fillColor=none;fontSize=5;" parent="1" vertex="1">
          <mxGeometry x="954.1199999999999" y="1472.5" width="30" height="20" as="geometry" />
        </mxCell>
        <mxCell id="M9uhc5HD6TSEB5luogaD-114" value="" style="endArrow=none;html=1;rounded=0;exitX=0.002;exitY=0.635;exitDx=0;exitDy=0;exitPerimeter=0;entryX=1.005;entryY=0.786;entryDx=0;entryDy=0;entryPerimeter=0;" parent="1" edge="1">
          <mxGeometry width="50" height="50" relative="1" as="geometry">
            <mxPoint x="958.3599999999999" y="1542.6" as="sourcePoint" />
            <mxPoint x="1113.895" y="1542.24" as="targetPoint" />
          </mxGeometry>
        </mxCell>
        <mxCell id="M9uhc5HD6TSEB5luogaD-115" value="1.2.2" style="text;html=1;align=center;verticalAlign=middle;resizable=0;points=[];autosize=1;strokeColor=none;fillColor=none;fontSize=8;" parent="1" vertex="1">
          <mxGeometry x="955.1199999999999" y="1543.5" width="40" height="20" as="geometry" />
        </mxCell>
        <mxCell id="M9uhc5HD6TSEB5luogaD-116" value="" style="endArrow=none;html=1;rounded=0;entryX=0.5;entryY=1;entryDx=0;entryDy=0;" parent="1" edge="1">
          <mxGeometry width="50" height="50" relative="1" as="geometry">
            <mxPoint x="1035.56" y="1542.5" as="sourcePoint" />
            <mxPoint x="1035.56" y="1562.5" as="targetPoint" />
          </mxGeometry>
        </mxCell>
        <mxCell id="M9uhc5HD6TSEB5luogaD-117" value="" style="endArrow=classic;html=1;rounded=0;exitX=1;exitY=0.5;exitDx=0;exitDy=0;" parent="1" source="M9uhc5HD6TSEB5luogaD-104" target="M9uhc5HD6TSEB5luogaD-111" edge="1">
          <mxGeometry width="50" height="50" relative="1" as="geometry">
            <mxPoint x="922.1199999999999" y="1566.5" as="sourcePoint" />
            <mxPoint x="962.1199999999999" y="1516.5" as="targetPoint" />
          </mxGeometry>
        </mxCell>
        <mxCell id="M9uhc5HD6TSEB5luogaD-118" value="" style="rounded=0;whiteSpace=wrap;html=1;gradientColor=none;glass=0;shadow=0;" parent="1" vertex="1">
          <mxGeometry x="958.1199999999999" y="1596" width="155" height="90" as="geometry" />
        </mxCell>
        <mxCell id="M9uhc5HD6TSEB5luogaD-119" value="" style="endArrow=none;html=1;rounded=0;exitX=0.003;exitY=0.15;exitDx=0;exitDy=0;entryX=0.077;entryY=0;entryDx=0;entryDy=0;entryPerimeter=0;jumpSize=100;endSize=6;jumpStyle=none;exitPerimeter=0;" parent="1" source="M9uhc5HD6TSEB5luogaD-118" target="M9uhc5HD6TSEB5luogaD-118" edge="1">
          <mxGeometry width="50" height="50" relative="1" as="geometry">
            <mxPoint x="958.1199999999999" y="1609.32" as="sourcePoint" />
            <mxPoint x="972.6399999999999" y="1596" as="targetPoint" />
          </mxGeometry>
        </mxCell>
        <mxCell id="M9uhc5HD6TSEB5luogaD-120" value="0р." style="text;html=1;align=center;verticalAlign=middle;resizable=0;points=[];autosize=1;strokeColor=none;fillColor=none;fontSize=5;" parent="1" vertex="1">
          <mxGeometry x="954.1199999999999" y="1596" width="30" height="20" as="geometry" />
        </mxCell>
        <mxCell id="M9uhc5HD6TSEB5luogaD-121" value="" style="endArrow=none;html=1;rounded=0;exitX=0.002;exitY=0.635;exitDx=0;exitDy=0;exitPerimeter=0;entryX=1.005;entryY=0.786;entryDx=0;entryDy=0;entryPerimeter=0;" parent="1" edge="1">
          <mxGeometry width="50" height="50" relative="1" as="geometry">
            <mxPoint x="958.3599999999999" y="1666.1" as="sourcePoint" />
            <mxPoint x="1113.895" y="1665.74" as="targetPoint" />
          </mxGeometry>
        </mxCell>
        <mxCell id="M9uhc5HD6TSEB5luogaD-122" value="1.2.3" style="text;html=1;align=center;verticalAlign=middle;resizable=0;points=[];autosize=1;strokeColor=none;fillColor=none;fontSize=8;" parent="1" vertex="1">
          <mxGeometry x="955.1199999999999" y="1667" width="40" height="20" as="geometry" />
        </mxCell>
        <mxCell id="M9uhc5HD6TSEB5luogaD-123" value="&lt;p style=&quot;border-color: var(--border-color); margin: 0cm; text-indent: 35.45pt;&quot; class=&quot;MsoListParagraph&quot;&gt;Проверка корректности&lt;/p&gt;&lt;p style=&quot;border-color: var(--border-color); margin: 0cm; text-indent: 35.45pt;&quot; class=&quot;MsoListParagraph&quot;&gt;&lt;span style=&quot;text-indent: 35.45pt; background-color: initial;&quot;&gt;данных пользователя&lt;/span&gt;&lt;/p&gt;" style="text;html=1;align=center;verticalAlign=middle;resizable=0;points=[];autosize=1;strokeColor=none;fillColor=none;fontSize=9;" parent="1" vertex="1">
          <mxGeometry x="927.1199999999999" y="1613" width="170" height="40" as="geometry" />
        </mxCell>
        <mxCell id="M9uhc5HD6TSEB5luogaD-124" value="" style="endArrow=none;html=1;rounded=0;entryX=0.5;entryY=1;entryDx=0;entryDy=0;" parent="1" edge="1">
          <mxGeometry width="50" height="50" relative="1" as="geometry">
            <mxPoint x="1035.56" y="1666" as="sourcePoint" />
            <mxPoint x="1035.56" y="1686" as="targetPoint" />
          </mxGeometry>
        </mxCell>
        <mxCell id="M9uhc5HD6TSEB5luogaD-125" value="" style="endArrow=classic;html=1;rounded=0;exitX=0.5;exitY=1;exitDx=0;exitDy=0;entryX=0.5;entryY=0;entryDx=0;entryDy=0;" parent="1" edge="1">
          <mxGeometry width="50" height="50" relative="1" as="geometry">
            <mxPoint x="1049.62" y="1562.5" as="sourcePoint" />
            <mxPoint x="1049.62" y="1596" as="targetPoint" />
          </mxGeometry>
        </mxCell>
        <mxCell id="M9uhc5HD6TSEB5luogaD-126" value="" style="rounded=0;whiteSpace=wrap;html=1;gradientColor=none;glass=0;shadow=0;" parent="1" vertex="1">
          <mxGeometry x="761.56" y="1596.5" width="155" height="90" as="geometry" />
        </mxCell>
        <mxCell id="M9uhc5HD6TSEB5luogaD-127" value="" style="endArrow=none;html=1;rounded=0;exitX=0.003;exitY=0.15;exitDx=0;exitDy=0;entryX=0.077;entryY=0;entryDx=0;entryDy=0;entryPerimeter=0;jumpSize=100;endSize=6;jumpStyle=none;exitPerimeter=0;" parent="1" source="M9uhc5HD6TSEB5luogaD-126" target="M9uhc5HD6TSEB5luogaD-126" edge="1">
          <mxGeometry width="50" height="50" relative="1" as="geometry">
            <mxPoint x="761.56" y="1609.82" as="sourcePoint" />
            <mxPoint x="776.0799999999999" y="1596.5" as="targetPoint" />
          </mxGeometry>
        </mxCell>
        <mxCell id="M9uhc5HD6TSEB5luogaD-128" value="0р." style="text;html=1;align=center;verticalAlign=middle;resizable=0;points=[];autosize=1;strokeColor=none;fillColor=none;fontSize=5;" parent="1" vertex="1">
          <mxGeometry x="757.56" y="1596.5" width="30" height="20" as="geometry" />
        </mxCell>
        <mxCell id="M9uhc5HD6TSEB5luogaD-129" value="" style="endArrow=none;html=1;rounded=0;exitX=0.002;exitY=0.635;exitDx=0;exitDy=0;exitPerimeter=0;entryX=1.005;entryY=0.786;entryDx=0;entryDy=0;entryPerimeter=0;" parent="1" edge="1">
          <mxGeometry width="50" height="50" relative="1" as="geometry">
            <mxPoint x="761.8" y="1666.6" as="sourcePoint" />
            <mxPoint x="917.335" y="1666.24" as="targetPoint" />
          </mxGeometry>
        </mxCell>
        <mxCell id="M9uhc5HD6TSEB5luogaD-130" value="1.2.4" style="text;html=1;align=center;verticalAlign=middle;resizable=0;points=[];autosize=1;strokeColor=none;fillColor=none;fontSize=8;" parent="1" vertex="1">
          <mxGeometry x="758.56" y="1667.5" width="40" height="20" as="geometry" />
        </mxCell>
        <mxCell id="M9uhc5HD6TSEB5luogaD-131" value="&lt;p style=&quot;border-color: var(--border-color); margin: 0cm; text-indent: 35.45pt;&quot; class=&quot;MsoListParagraph&quot;&gt;Вход в систему&lt;/p&gt;" style="text;html=1;align=center;verticalAlign=middle;resizable=0;points=[];autosize=1;strokeColor=none;fillColor=none;fontSize=9;" parent="1" vertex="1">
          <mxGeometry x="750.56" y="1625.5" width="130" height="20" as="geometry" />
        </mxCell>
        <mxCell id="M9uhc5HD6TSEB5luogaD-132" value="" style="endArrow=none;html=1;rounded=0;entryX=0.5;entryY=1;entryDx=0;entryDy=0;" parent="1" edge="1">
          <mxGeometry width="50" height="50" relative="1" as="geometry">
            <mxPoint x="839" y="1666.5" as="sourcePoint" />
            <mxPoint x="839" y="1686.5" as="targetPoint" />
          </mxGeometry>
        </mxCell>
        <mxCell id="M9uhc5HD6TSEB5luogaD-133" value="" style="endArrow=none;html=1;rounded=0;exitX=1;exitY=0.5;exitDx=0;exitDy=0;startArrow=classic;startFill=1;endFill=0;" parent="1" edge="1">
          <mxGeometry width="50" height="50" relative="1" as="geometry">
            <mxPoint x="916.56" y="1640.6399999999999" as="sourcePoint" />
            <mxPoint x="957.56" y="1640.6399999999999" as="targetPoint" />
          </mxGeometry>
        </mxCell>
        <mxCell id="M9uhc5HD6TSEB5luogaD-134" value="" style="endArrow=none;html=1;rounded=0;entryX=0;entryY=0.5;entryDx=0;entryDy=0;startArrow=classic;startFill=1;endFill=0;exitX=0.988;exitY=0.632;exitDx=0;exitDy=0;exitPerimeter=0;" parent="1" source="M9uhc5HD6TSEB5luogaD-218" edge="1">
          <mxGeometry width="50" height="50" relative="1" as="geometry">
            <mxPoint x="661.56" y="1645" as="sourcePoint" />
            <mxPoint x="761.56" y="1645" as="targetPoint" />
          </mxGeometry>
        </mxCell>
        <mxCell id="M9uhc5HD6TSEB5luogaD-135" value="Учетная запись&lt;br&gt;пользователя" style="text;html=1;align=center;verticalAlign=middle;resizable=0;points=[];autosize=1;strokeColor=none;fillColor=none;fontSize=7;" parent="1" vertex="1">
          <mxGeometry x="668.56" y="1611" width="70" height="30" as="geometry" />
        </mxCell>
        <mxCell id="M9uhc5HD6TSEB5luogaD-136" value="Учетные данные&lt;br&gt;пользователя" style="text;html=1;align=center;verticalAlign=middle;resizable=0;points=[];autosize=1;strokeColor=none;fillColor=none;fontSize=7;" parent="1" vertex="1">
          <mxGeometry x="665.56" y="1478.5" width="80" height="30" as="geometry" />
        </mxCell>
        <mxCell id="M9uhc5HD6TSEB5luogaD-137" value="Ввод учетных данных" style="text;html=1;align=center;verticalAlign=middle;resizable=0;points=[];autosize=1;strokeColor=none;fillColor=none;fontSize=9;" parent="1" vertex="1">
          <mxGeometry x="979.56" y="1500.5" width="110" height="20" as="geometry" />
        </mxCell>
        <mxCell id="M9uhc5HD6TSEB5luogaD-138" value="" style="rounded=0;whiteSpace=wrap;html=1;gradientColor=none;glass=0;shadow=0;" parent="1" vertex="1">
          <mxGeometry x="207.33999999999997" y="1760.5" width="155" height="90" as="geometry" />
        </mxCell>
        <mxCell id="M9uhc5HD6TSEB5luogaD-139" value="" style="endArrow=none;html=1;rounded=0;exitX=0.003;exitY=0.15;exitDx=0;exitDy=0;entryX=0.077;entryY=0;entryDx=0;entryDy=0;entryPerimeter=0;jumpSize=100;endSize=6;jumpStyle=none;exitPerimeter=0;" parent="1" source="M9uhc5HD6TSEB5luogaD-138" target="M9uhc5HD6TSEB5luogaD-138" edge="1">
          <mxGeometry width="50" height="50" relative="1" as="geometry">
            <mxPoint x="207.33999999999997" y="1773.82" as="sourcePoint" />
            <mxPoint x="221.85999999999996" y="1760.5" as="targetPoint" />
          </mxGeometry>
        </mxCell>
        <mxCell id="M9uhc5HD6TSEB5luogaD-140" value="0р." style="text;html=1;align=center;verticalAlign=middle;resizable=0;points=[];autosize=1;strokeColor=none;fillColor=none;fontSize=5;" parent="1" vertex="1">
          <mxGeometry x="203.33999999999997" y="1760.5" width="30" height="20" as="geometry" />
        </mxCell>
        <mxCell id="M9uhc5HD6TSEB5luogaD-141" value="" style="endArrow=none;html=1;rounded=0;exitX=0.002;exitY=0.635;exitDx=0;exitDy=0;exitPerimeter=0;entryX=1.005;entryY=0.786;entryDx=0;entryDy=0;entryPerimeter=0;" parent="1" edge="1">
          <mxGeometry width="50" height="50" relative="1" as="geometry">
            <mxPoint x="207.57999999999998" y="1830.6" as="sourcePoint" />
            <mxPoint x="363.1150000000001" y="1830.24" as="targetPoint" />
          </mxGeometry>
        </mxCell>
        <mxCell id="M9uhc5HD6TSEB5luogaD-142" value="2.1.1" style="text;html=1;align=center;verticalAlign=middle;resizable=0;points=[];autosize=1;strokeColor=none;fillColor=none;fontSize=8;" parent="1" vertex="1">
          <mxGeometry x="204.33999999999997" y="1831.5" width="40" height="20" as="geometry" />
        </mxCell>
        <mxCell id="M9uhc5HD6TSEB5luogaD-143" value="&lt;p style=&quot;margin: 0cm; text-indent: 35.45pt;&quot; class=&quot;MsoListParagraph&quot;&gt;Указания имени пользователя&lt;br&gt;&lt;/p&gt;" style="text;html=1;align=center;verticalAlign=middle;resizable=0;points=[];autosize=1;strokeColor=none;fillColor=none;fontSize=9;" parent="1" vertex="1">
          <mxGeometry x="161.33999999999997" y="1787.5" width="200" height="20" as="geometry" />
        </mxCell>
        <mxCell id="M9uhc5HD6TSEB5luogaD-144" value="" style="endArrow=none;html=1;rounded=0;entryX=0.5;entryY=1;entryDx=0;entryDy=0;" parent="1" edge="1">
          <mxGeometry width="50" height="50" relative="1" as="geometry">
            <mxPoint x="284.78000000000003" y="1830.5" as="sourcePoint" />
            <mxPoint x="284.78000000000003" y="1850.5" as="targetPoint" />
          </mxGeometry>
        </mxCell>
        <mxCell id="M9uhc5HD6TSEB5luogaD-145" value="" style="rounded=0;whiteSpace=wrap;html=1;gradientColor=none;glass=0;shadow=0;" parent="1" vertex="1">
          <mxGeometry x="403.12" y="1759.5" width="155" height="90" as="geometry" />
        </mxCell>
        <mxCell id="M9uhc5HD6TSEB5luogaD-146" value="" style="endArrow=none;html=1;rounded=0;exitX=0.003;exitY=0.15;exitDx=0;exitDy=0;entryX=0.077;entryY=0;entryDx=0;entryDy=0;entryPerimeter=0;jumpSize=100;endSize=6;jumpStyle=none;exitPerimeter=0;" parent="1" source="M9uhc5HD6TSEB5luogaD-145" target="M9uhc5HD6TSEB5luogaD-145" edge="1">
          <mxGeometry width="50" height="50" relative="1" as="geometry">
            <mxPoint x="403.12" y="1772.82" as="sourcePoint" />
            <mxPoint x="417.64" y="1759.5" as="targetPoint" />
          </mxGeometry>
        </mxCell>
        <mxCell id="M9uhc5HD6TSEB5luogaD-147" value="0р." style="text;html=1;align=center;verticalAlign=middle;resizable=0;points=[];autosize=1;strokeColor=none;fillColor=none;fontSize=5;" parent="1" vertex="1">
          <mxGeometry x="399.12" y="1759.5" width="30" height="20" as="geometry" />
        </mxCell>
        <mxCell id="M9uhc5HD6TSEB5luogaD-148" value="" style="endArrow=none;html=1;rounded=0;exitX=0.002;exitY=0.635;exitDx=0;exitDy=0;exitPerimeter=0;entryX=1.005;entryY=0.786;entryDx=0;entryDy=0;entryPerimeter=0;" parent="1" edge="1">
          <mxGeometry width="50" height="50" relative="1" as="geometry">
            <mxPoint x="403.36" y="1829.6" as="sourcePoint" />
            <mxPoint x="558.895" y="1829.24" as="targetPoint" />
          </mxGeometry>
        </mxCell>
        <mxCell id="M9uhc5HD6TSEB5luogaD-149" value="2.1.2" style="text;html=1;align=center;verticalAlign=middle;resizable=0;points=[];autosize=1;strokeColor=none;fillColor=none;fontSize=8;" parent="1" vertex="1">
          <mxGeometry x="400.12" y="1830.5" width="40" height="20" as="geometry" />
        </mxCell>
        <mxCell id="M9uhc5HD6TSEB5luogaD-150" value="" style="endArrow=none;html=1;rounded=0;entryX=0.5;entryY=1;entryDx=0;entryDy=0;" parent="1" edge="1">
          <mxGeometry width="50" height="50" relative="1" as="geometry">
            <mxPoint x="480.56" y="1829.5" as="sourcePoint" />
            <mxPoint x="480.56" y="1849.5" as="targetPoint" />
          </mxGeometry>
        </mxCell>
        <mxCell id="M9uhc5HD6TSEB5luogaD-151" value="" style="endArrow=classic;html=1;rounded=0;exitX=1;exitY=0.5;exitDx=0;exitDy=0;" parent="1" source="M9uhc5HD6TSEB5luogaD-138" target="M9uhc5HD6TSEB5luogaD-145" edge="1">
          <mxGeometry width="50" height="50" relative="1" as="geometry">
            <mxPoint x="367.12" y="1853.5" as="sourcePoint" />
            <mxPoint x="407.12" y="1803.5" as="targetPoint" />
          </mxGeometry>
        </mxCell>
        <mxCell id="M9uhc5HD6TSEB5luogaD-152" value="" style="rounded=0;whiteSpace=wrap;html=1;gradientColor=none;glass=0;shadow=0;" parent="1" vertex="1">
          <mxGeometry x="403.12" y="1883" width="155" height="90" as="geometry" />
        </mxCell>
        <mxCell id="M9uhc5HD6TSEB5luogaD-153" value="" style="endArrow=none;html=1;rounded=0;exitX=0.003;exitY=0.15;exitDx=0;exitDy=0;entryX=0.077;entryY=0;entryDx=0;entryDy=0;entryPerimeter=0;jumpSize=100;endSize=6;jumpStyle=none;exitPerimeter=0;" parent="1" source="M9uhc5HD6TSEB5luogaD-152" target="M9uhc5HD6TSEB5luogaD-152" edge="1">
          <mxGeometry width="50" height="50" relative="1" as="geometry">
            <mxPoint x="403.12" y="1896.32" as="sourcePoint" />
            <mxPoint x="417.64" y="1883" as="targetPoint" />
          </mxGeometry>
        </mxCell>
        <mxCell id="M9uhc5HD6TSEB5luogaD-154" value="0р." style="text;html=1;align=center;verticalAlign=middle;resizable=0;points=[];autosize=1;strokeColor=none;fillColor=none;fontSize=5;" parent="1" vertex="1">
          <mxGeometry x="399.12" y="1883" width="30" height="20" as="geometry" />
        </mxCell>
        <mxCell id="M9uhc5HD6TSEB5luogaD-155" value="" style="endArrow=none;html=1;rounded=0;exitX=0.002;exitY=0.635;exitDx=0;exitDy=0;exitPerimeter=0;entryX=1.005;entryY=0.786;entryDx=0;entryDy=0;entryPerimeter=0;" parent="1" edge="1">
          <mxGeometry width="50" height="50" relative="1" as="geometry">
            <mxPoint x="403.36" y="1953.1" as="sourcePoint" />
            <mxPoint x="558.895" y="1952.74" as="targetPoint" />
          </mxGeometry>
        </mxCell>
        <mxCell id="M9uhc5HD6TSEB5luogaD-156" value="2.1.3" style="text;html=1;align=center;verticalAlign=middle;resizable=0;points=[];autosize=1;strokeColor=none;fillColor=none;fontSize=8;" parent="1" vertex="1">
          <mxGeometry x="400.12" y="1954" width="40" height="20" as="geometry" />
        </mxCell>
        <mxCell id="M9uhc5HD6TSEB5luogaD-157" value="&lt;p style=&quot;border-color: var(--border-color); margin: 0cm; text-indent: 35.45pt;&quot; class=&quot;MsoListParagraph&quot;&gt;Отображение результатов&lt;br&gt;&lt;/p&gt;" style="text;html=1;align=center;verticalAlign=middle;resizable=0;points=[];autosize=1;strokeColor=none;fillColor=none;fontSize=9;" parent="1" vertex="1">
          <mxGeometry x="367.12" y="1910" width="180" height="20" as="geometry" />
        </mxCell>
        <mxCell id="M9uhc5HD6TSEB5luogaD-158" value="" style="endArrow=none;html=1;rounded=0;entryX=0.5;entryY=1;entryDx=0;entryDy=0;" parent="1" edge="1">
          <mxGeometry width="50" height="50" relative="1" as="geometry">
            <mxPoint x="480.56" y="1953" as="sourcePoint" />
            <mxPoint x="480.56" y="1973" as="targetPoint" />
          </mxGeometry>
        </mxCell>
        <mxCell id="M9uhc5HD6TSEB5luogaD-159" value="" style="endArrow=classic;html=1;rounded=0;exitX=0.5;exitY=1;exitDx=0;exitDy=0;entryX=0.5;entryY=0;entryDx=0;entryDy=0;" parent="1" edge="1">
          <mxGeometry width="50" height="50" relative="1" as="geometry">
            <mxPoint x="494.61999999999995" y="1849.5" as="sourcePoint" />
            <mxPoint x="494.61999999999995" y="1883" as="targetPoint" />
          </mxGeometry>
        </mxCell>
        <mxCell id="M9uhc5HD6TSEB5luogaD-160" value="" style="rounded=0;whiteSpace=wrap;html=1;gradientColor=none;glass=0;shadow=0;" parent="1" vertex="1">
          <mxGeometry x="206.56" y="1883.5" width="155" height="90" as="geometry" />
        </mxCell>
        <mxCell id="M9uhc5HD6TSEB5luogaD-161" value="" style="endArrow=none;html=1;rounded=0;exitX=0.003;exitY=0.15;exitDx=0;exitDy=0;entryX=0.077;entryY=0;entryDx=0;entryDy=0;entryPerimeter=0;jumpSize=100;endSize=6;jumpStyle=none;exitPerimeter=0;" parent="1" source="M9uhc5HD6TSEB5luogaD-160" target="M9uhc5HD6TSEB5luogaD-160" edge="1">
          <mxGeometry width="50" height="50" relative="1" as="geometry">
            <mxPoint x="206.56" y="1896.82" as="sourcePoint" />
            <mxPoint x="221.07999999999998" y="1883.5" as="targetPoint" />
          </mxGeometry>
        </mxCell>
        <mxCell id="M9uhc5HD6TSEB5luogaD-162" value="0р." style="text;html=1;align=center;verticalAlign=middle;resizable=0;points=[];autosize=1;strokeColor=none;fillColor=none;fontSize=5;" parent="1" vertex="1">
          <mxGeometry x="202.56" y="1883.5" width="30" height="20" as="geometry" />
        </mxCell>
        <mxCell id="M9uhc5HD6TSEB5luogaD-163" value="" style="endArrow=none;html=1;rounded=0;exitX=0.002;exitY=0.635;exitDx=0;exitDy=0;exitPerimeter=0;entryX=1.005;entryY=0.786;entryDx=0;entryDy=0;entryPerimeter=0;" parent="1" edge="1">
          <mxGeometry width="50" height="50" relative="1" as="geometry">
            <mxPoint x="206.8" y="1953.6" as="sourcePoint" />
            <mxPoint x="362.3350000000001" y="1953.24" as="targetPoint" />
          </mxGeometry>
        </mxCell>
        <mxCell id="M9uhc5HD6TSEB5luogaD-164" value="2.1.4" style="text;html=1;align=center;verticalAlign=middle;resizable=0;points=[];autosize=1;strokeColor=none;fillColor=none;fontSize=8;" parent="1" vertex="1">
          <mxGeometry x="203.56" y="1954.5" width="40" height="20" as="geometry" />
        </mxCell>
        <mxCell id="M9uhc5HD6TSEB5luogaD-165" value="&lt;p style=&quot;border-color: var(--border-color); margin: 0cm; text-indent: 35.45pt;&quot; class=&quot;MsoListParagraph&quot;&gt;Просмотр пользователей&lt;br&gt;&lt;/p&gt;" style="text;html=1;align=center;verticalAlign=middle;resizable=0;points=[];autosize=1;strokeColor=none;fillColor=none;fontSize=9;" parent="1" vertex="1">
          <mxGeometry x="170.56" y="1912.5" width="180" height="20" as="geometry" />
        </mxCell>
        <mxCell id="M9uhc5HD6TSEB5luogaD-166" value="" style="endArrow=none;html=1;rounded=0;entryX=0.5;entryY=1;entryDx=0;entryDy=0;" parent="1" edge="1">
          <mxGeometry width="50" height="50" relative="1" as="geometry">
            <mxPoint x="284" y="1953.5" as="sourcePoint" />
            <mxPoint x="284" y="1973.5" as="targetPoint" />
          </mxGeometry>
        </mxCell>
        <mxCell id="M9uhc5HD6TSEB5luogaD-167" value="" style="endArrow=none;html=1;rounded=0;exitX=1;exitY=0.5;exitDx=0;exitDy=0;startArrow=classic;startFill=1;endFill=0;" parent="1" edge="1">
          <mxGeometry width="50" height="50" relative="1" as="geometry">
            <mxPoint x="361.56" y="1927.6399999999999" as="sourcePoint" />
            <mxPoint x="402.56" y="1927.6399999999999" as="targetPoint" />
          </mxGeometry>
        </mxCell>
        <mxCell id="M9uhc5HD6TSEB5luogaD-168" value="Список пользователей" style="text;html=1;align=center;verticalAlign=middle;resizable=0;points=[];autosize=1;strokeColor=none;fillColor=none;fontSize=7;" parent="1" vertex="1">
          <mxGeometry x="100.56" y="1899" width="100" height="20" as="geometry" />
        </mxCell>
        <mxCell id="M9uhc5HD6TSEB5luogaD-169" value=" Имя пользователя&lt;br&gt;для добавления&amp;nbsp;&lt;br&gt;в контакты" style="text;html=1;align=center;verticalAlign=middle;resizable=0;points=[];autosize=1;strokeColor=none;fillColor=none;fontSize=7;" parent="1" vertex="1">
          <mxGeometry x="116.56" y="1760.5" width="80" height="40" as="geometry" />
        </mxCell>
        <mxCell id="M9uhc5HD6TSEB5luogaD-170" value="Поиск совпадений в БД" style="text;html=1;align=center;verticalAlign=middle;resizable=0;points=[];autosize=1;strokeColor=none;fillColor=none;fontSize=9;" parent="1" vertex="1">
          <mxGeometry x="419.56" y="1787.5" width="120" height="20" as="geometry" />
        </mxCell>
        <mxCell id="M9uhc5HD6TSEB5luogaD-171" value="" style="rounded=0;whiteSpace=wrap;html=1;gradientColor=none;glass=0;shadow=0;" parent="1" vertex="1">
          <mxGeometry x="762.3399999999999" y="1759" width="155" height="90" as="geometry" />
        </mxCell>
        <mxCell id="M9uhc5HD6TSEB5luogaD-172" value="" style="endArrow=none;html=1;rounded=0;exitX=0.003;exitY=0.15;exitDx=0;exitDy=0;entryX=0.077;entryY=0;entryDx=0;entryDy=0;entryPerimeter=0;jumpSize=100;endSize=6;jumpStyle=none;exitPerimeter=0;" parent="1" source="M9uhc5HD6TSEB5luogaD-171" target="M9uhc5HD6TSEB5luogaD-171" edge="1">
          <mxGeometry width="50" height="50" relative="1" as="geometry">
            <mxPoint x="762.3399999999999" y="1772.32" as="sourcePoint" />
            <mxPoint x="776.8599999999999" y="1759" as="targetPoint" />
          </mxGeometry>
        </mxCell>
        <mxCell id="M9uhc5HD6TSEB5luogaD-173" value="0р." style="text;html=1;align=center;verticalAlign=middle;resizable=0;points=[];autosize=1;strokeColor=none;fillColor=none;fontSize=5;" parent="1" vertex="1">
          <mxGeometry x="758.3399999999999" y="1759" width="30" height="20" as="geometry" />
        </mxCell>
        <mxCell id="M9uhc5HD6TSEB5luogaD-174" value="" style="endArrow=none;html=1;rounded=0;exitX=0.002;exitY=0.635;exitDx=0;exitDy=0;exitPerimeter=0;entryX=1.005;entryY=0.786;entryDx=0;entryDy=0;entryPerimeter=0;" parent="1" edge="1">
          <mxGeometry width="50" height="50" relative="1" as="geometry">
            <mxPoint x="762.5799999999999" y="1829.1" as="sourcePoint" />
            <mxPoint x="918.115" y="1828.74" as="targetPoint" />
          </mxGeometry>
        </mxCell>
        <mxCell id="M9uhc5HD6TSEB5luogaD-175" value="2.2.1" style="text;html=1;align=center;verticalAlign=middle;resizable=0;points=[];autosize=1;strokeColor=none;fillColor=none;fontSize=8;" parent="1" vertex="1">
          <mxGeometry x="759.3399999999999" y="1830" width="40" height="20" as="geometry" />
        </mxCell>
        <mxCell id="M9uhc5HD6TSEB5luogaD-176" value="&lt;p style=&quot;margin: 0cm; text-indent: 35.45pt;&quot; class=&quot;MsoListParagraph&quot;&gt;Выбор требуемого пользователя&lt;/p&gt;" style="text;html=1;align=center;verticalAlign=middle;resizable=0;points=[];autosize=1;strokeColor=none;fillColor=none;fontSize=9;" parent="1" vertex="1">
          <mxGeometry x="711.3399999999999" y="1786" width="210" height="20" as="geometry" />
        </mxCell>
        <mxCell id="M9uhc5HD6TSEB5luogaD-177" value="" style="endArrow=none;html=1;rounded=0;entryX=0.5;entryY=1;entryDx=0;entryDy=0;" parent="1" edge="1">
          <mxGeometry width="50" height="50" relative="1" as="geometry">
            <mxPoint x="839.78" y="1829" as="sourcePoint" />
            <mxPoint x="839.78" y="1849" as="targetPoint" />
          </mxGeometry>
        </mxCell>
        <mxCell id="M9uhc5HD6TSEB5luogaD-178" value="" style="rounded=0;whiteSpace=wrap;html=1;gradientColor=none;glass=0;shadow=0;" parent="1" vertex="1">
          <mxGeometry x="958.1199999999999" y="1758" width="155" height="90" as="geometry" />
        </mxCell>
        <mxCell id="M9uhc5HD6TSEB5luogaD-179" value="" style="endArrow=none;html=1;rounded=0;exitX=0.003;exitY=0.15;exitDx=0;exitDy=0;entryX=0.077;entryY=0;entryDx=0;entryDy=0;entryPerimeter=0;jumpSize=100;endSize=6;jumpStyle=none;exitPerimeter=0;" parent="1" source="M9uhc5HD6TSEB5luogaD-178" target="M9uhc5HD6TSEB5luogaD-178" edge="1">
          <mxGeometry width="50" height="50" relative="1" as="geometry">
            <mxPoint x="958.1199999999999" y="1771.32" as="sourcePoint" />
            <mxPoint x="972.6399999999999" y="1758" as="targetPoint" />
          </mxGeometry>
        </mxCell>
        <mxCell id="M9uhc5HD6TSEB5luogaD-180" value="0р." style="text;html=1;align=center;verticalAlign=middle;resizable=0;points=[];autosize=1;strokeColor=none;fillColor=none;fontSize=5;" parent="1" vertex="1">
          <mxGeometry x="954.1199999999999" y="1758" width="30" height="20" as="geometry" />
        </mxCell>
        <mxCell id="M9uhc5HD6TSEB5luogaD-181" value="" style="endArrow=none;html=1;rounded=0;exitX=0.002;exitY=0.635;exitDx=0;exitDy=0;exitPerimeter=0;entryX=1.005;entryY=0.786;entryDx=0;entryDy=0;entryPerimeter=0;" parent="1" edge="1">
          <mxGeometry width="50" height="50" relative="1" as="geometry">
            <mxPoint x="958.3599999999999" y="1828.1" as="sourcePoint" />
            <mxPoint x="1113.895" y="1827.74" as="targetPoint" />
          </mxGeometry>
        </mxCell>
        <mxCell id="M9uhc5HD6TSEB5luogaD-182" value="2.2.2" style="text;html=1;align=center;verticalAlign=middle;resizable=0;points=[];autosize=1;strokeColor=none;fillColor=none;fontSize=8;" parent="1" vertex="1">
          <mxGeometry x="955.1199999999999" y="1829" width="40" height="20" as="geometry" />
        </mxCell>
        <mxCell id="M9uhc5HD6TSEB5luogaD-183" value="" style="endArrow=none;html=1;rounded=0;entryX=0.5;entryY=1;entryDx=0;entryDy=0;" parent="1" edge="1">
          <mxGeometry width="50" height="50" relative="1" as="geometry">
            <mxPoint x="1035.56" y="1828" as="sourcePoint" />
            <mxPoint x="1035.56" y="1848" as="targetPoint" />
          </mxGeometry>
        </mxCell>
        <mxCell id="M9uhc5HD6TSEB5luogaD-184" value="" style="endArrow=classic;html=1;rounded=0;exitX=1;exitY=0.5;exitDx=0;exitDy=0;" parent="1" source="M9uhc5HD6TSEB5luogaD-171" target="M9uhc5HD6TSEB5luogaD-178" edge="1">
          <mxGeometry width="50" height="50" relative="1" as="geometry">
            <mxPoint x="922.1199999999999" y="1852" as="sourcePoint" />
            <mxPoint x="962.1199999999999" y="1802" as="targetPoint" />
          </mxGeometry>
        </mxCell>
        <mxCell id="M9uhc5HD6TSEB5luogaD-185" value="" style="rounded=0;whiteSpace=wrap;html=1;gradientColor=none;glass=0;shadow=0;" parent="1" vertex="1">
          <mxGeometry x="958.1199999999999" y="1881.5" width="155" height="90" as="geometry" />
        </mxCell>
        <mxCell id="M9uhc5HD6TSEB5luogaD-186" value="" style="endArrow=none;html=1;rounded=0;exitX=0.003;exitY=0.15;exitDx=0;exitDy=0;entryX=0.077;entryY=0;entryDx=0;entryDy=0;entryPerimeter=0;jumpSize=100;endSize=6;jumpStyle=none;exitPerimeter=0;" parent="1" source="M9uhc5HD6TSEB5luogaD-185" target="M9uhc5HD6TSEB5luogaD-185" edge="1">
          <mxGeometry width="50" height="50" relative="1" as="geometry">
            <mxPoint x="958.1199999999999" y="1894.82" as="sourcePoint" />
            <mxPoint x="972.6399999999999" y="1881.5" as="targetPoint" />
          </mxGeometry>
        </mxCell>
        <mxCell id="M9uhc5HD6TSEB5luogaD-187" value="0р." style="text;html=1;align=center;verticalAlign=middle;resizable=0;points=[];autosize=1;strokeColor=none;fillColor=none;fontSize=5;" parent="1" vertex="1">
          <mxGeometry x="954.1199999999999" y="1881.5" width="30" height="20" as="geometry" />
        </mxCell>
        <mxCell id="M9uhc5HD6TSEB5luogaD-188" value="" style="endArrow=none;html=1;rounded=0;exitX=0.002;exitY=0.635;exitDx=0;exitDy=0;exitPerimeter=0;entryX=1.005;entryY=0.786;entryDx=0;entryDy=0;entryPerimeter=0;" parent="1" edge="1">
          <mxGeometry width="50" height="50" relative="1" as="geometry">
            <mxPoint x="958.3599999999999" y="1951.6" as="sourcePoint" />
            <mxPoint x="1113.895" y="1951.24" as="targetPoint" />
          </mxGeometry>
        </mxCell>
        <mxCell id="M9uhc5HD6TSEB5luogaD-189" value="2.2.3" style="text;html=1;align=center;verticalAlign=middle;resizable=0;points=[];autosize=1;strokeColor=none;fillColor=none;fontSize=8;" parent="1" vertex="1">
          <mxGeometry x="955.1199999999999" y="1952.5" width="40" height="20" as="geometry" />
        </mxCell>
        <mxCell id="M9uhc5HD6TSEB5luogaD-190" value="&lt;p style=&quot;border-color: var(--border-color); margin: 0cm; text-indent: 35.45pt;&quot; class=&quot;MsoListParagraph&quot;&gt;Добавление контакта в БД&lt;br&gt;&lt;/p&gt;" style="text;html=1;align=center;verticalAlign=middle;resizable=0;points=[];autosize=1;strokeColor=none;fillColor=none;fontSize=9;" parent="1" vertex="1">
          <mxGeometry x="922.1199999999999" y="1908.5" width="180" height="20" as="geometry" />
        </mxCell>
        <mxCell id="M9uhc5HD6TSEB5luogaD-191" value="" style="endArrow=none;html=1;rounded=0;entryX=0.5;entryY=1;entryDx=0;entryDy=0;" parent="1" edge="1">
          <mxGeometry width="50" height="50" relative="1" as="geometry">
            <mxPoint x="1035.56" y="1951.5" as="sourcePoint" />
            <mxPoint x="1035.56" y="1971.5" as="targetPoint" />
          </mxGeometry>
        </mxCell>
        <mxCell id="M9uhc5HD6TSEB5luogaD-192" value="" style="endArrow=classic;html=1;rounded=0;exitX=0.5;exitY=1;exitDx=0;exitDy=0;entryX=0.5;entryY=0;entryDx=0;entryDy=0;" parent="1" edge="1">
          <mxGeometry width="50" height="50" relative="1" as="geometry">
            <mxPoint x="1049.62" y="1848" as="sourcePoint" />
            <mxPoint x="1049.62" y="1881.5" as="targetPoint" />
          </mxGeometry>
        </mxCell>
        <mxCell id="M9uhc5HD6TSEB5luogaD-193" value="" style="rounded=0;whiteSpace=wrap;html=1;gradientColor=none;glass=0;shadow=0;" parent="1" vertex="1">
          <mxGeometry x="761.56" y="1882" width="155" height="90" as="geometry" />
        </mxCell>
        <mxCell id="M9uhc5HD6TSEB5luogaD-194" value="" style="endArrow=none;html=1;rounded=0;exitX=0.003;exitY=0.15;exitDx=0;exitDy=0;entryX=0.077;entryY=0;entryDx=0;entryDy=0;entryPerimeter=0;jumpSize=100;endSize=6;jumpStyle=none;exitPerimeter=0;" parent="1" source="M9uhc5HD6TSEB5luogaD-193" target="M9uhc5HD6TSEB5luogaD-193" edge="1">
          <mxGeometry width="50" height="50" relative="1" as="geometry">
            <mxPoint x="761.56" y="1895.32" as="sourcePoint" />
            <mxPoint x="776.0799999999999" y="1882" as="targetPoint" />
          </mxGeometry>
        </mxCell>
        <mxCell id="M9uhc5HD6TSEB5luogaD-195" value="0р." style="text;html=1;align=center;verticalAlign=middle;resizable=0;points=[];autosize=1;strokeColor=none;fillColor=none;fontSize=5;" parent="1" vertex="1">
          <mxGeometry x="757.56" y="1882" width="30" height="20" as="geometry" />
        </mxCell>
        <mxCell id="M9uhc5HD6TSEB5luogaD-196" value="" style="endArrow=none;html=1;rounded=0;exitX=0.002;exitY=0.635;exitDx=0;exitDy=0;exitPerimeter=0;entryX=1.005;entryY=0.786;entryDx=0;entryDy=0;entryPerimeter=0;" parent="1" edge="1">
          <mxGeometry width="50" height="50" relative="1" as="geometry">
            <mxPoint x="761.8" y="1952.1" as="sourcePoint" />
            <mxPoint x="917.335" y="1951.74" as="targetPoint" />
          </mxGeometry>
        </mxCell>
        <mxCell id="M9uhc5HD6TSEB5luogaD-197" value="2.2.4" style="text;html=1;align=center;verticalAlign=middle;resizable=0;points=[];autosize=1;strokeColor=none;fillColor=none;fontSize=8;" parent="1" vertex="1">
          <mxGeometry x="758.56" y="1953" width="40" height="20" as="geometry" />
        </mxCell>
        <mxCell id="M9uhc5HD6TSEB5luogaD-198" value="&lt;p style=&quot;border-color: var(--border-color); margin: 0cm; text-indent: 35.45pt;&quot; class=&quot;MsoListParagraph&quot;&gt;Создание чата с пользователем&lt;/p&gt;" style="text;html=1;align=center;verticalAlign=middle;resizable=0;points=[];autosize=1;strokeColor=none;fillColor=none;fontSize=9;" parent="1" vertex="1">
          <mxGeometry x="710.56" y="1911" width="210" height="20" as="geometry" />
        </mxCell>
        <mxCell id="M9uhc5HD6TSEB5luogaD-199" value="" style="endArrow=none;html=1;rounded=0;entryX=0.5;entryY=1;entryDx=0;entryDy=0;" parent="1" edge="1">
          <mxGeometry width="50" height="50" relative="1" as="geometry">
            <mxPoint x="839" y="1952" as="sourcePoint" />
            <mxPoint x="839" y="1972" as="targetPoint" />
          </mxGeometry>
        </mxCell>
        <mxCell id="M9uhc5HD6TSEB5luogaD-200" value="" style="endArrow=none;html=1;rounded=0;exitX=1;exitY=0.5;exitDx=0;exitDy=0;startArrow=classic;startFill=1;endFill=0;" parent="1" edge="1">
          <mxGeometry width="50" height="50" relative="1" as="geometry">
            <mxPoint x="916.56" y="1926.1399999999999" as="sourcePoint" />
            <mxPoint x="957.56" y="1926.1399999999999" as="targetPoint" />
          </mxGeometry>
        </mxCell>
        <mxCell id="M9uhc5HD6TSEB5luogaD-201" value="" style="endArrow=none;html=1;rounded=0;entryX=0;entryY=0.5;entryDx=0;entryDy=0;startArrow=classic;startFill=1;endFill=0;exitX=1;exitY=0.5;exitDx=0;exitDy=0;" parent="1" source="M9uhc5HD6TSEB5luogaD-220" edge="1">
          <mxGeometry width="50" height="50" relative="1" as="geometry">
            <mxPoint x="640" y="1930" as="sourcePoint" />
            <mxPoint x="761.56" y="1930.5" as="targetPoint" />
          </mxGeometry>
        </mxCell>
        <mxCell id="M9uhc5HD6TSEB5luogaD-202" value="Список пользователей" style="text;html=1;align=center;verticalAlign=middle;resizable=0;points=[];autosize=1;strokeColor=none;fillColor=none;fontSize=7;" parent="1" vertex="1">
          <mxGeometry x="655.56" y="1769" width="100" height="20" as="geometry" />
        </mxCell>
        <mxCell id="M9uhc5HD6TSEB5luogaD-203" value="Проверка черного списка" style="text;html=1;align=center;verticalAlign=middle;resizable=0;points=[];autosize=1;strokeColor=none;fillColor=none;fontSize=9;" parent="1" vertex="1">
          <mxGeometry x="969.56" y="1786" width="130" height="20" as="geometry" />
        </mxCell>
        <mxCell id="M9uhc5HD6TSEB5luogaD-204" value="Чат с пользователем" style="text;html=1;align=center;verticalAlign=middle;resizable=0;points=[];autosize=1;strokeColor=none;fillColor=none;fontSize=7;" parent="1" vertex="1">
          <mxGeometry x="663.56" y="1900" width="90" height="20" as="geometry" />
        </mxCell>
        <mxCell id="M9uhc5HD6TSEB5luogaD-207" value="&lt;font style=&quot;font-size: 15px;&quot;&gt;&amp;amp;&lt;/font&gt;" style="rounded=0;whiteSpace=wrap;html=1;" parent="1" vertex="1">
          <mxGeometry x="591.56" y="1557.5" width="34" height="34" as="geometry" />
        </mxCell>
        <mxCell id="M9uhc5HD6TSEB5luogaD-208" value="" style="endArrow=none;html=1;rounded=0;entryX=0.25;entryY=0;entryDx=0;entryDy=0;exitX=0.25;exitY=1;exitDx=0;exitDy=0;" parent="1" source="M9uhc5HD6TSEB5luogaD-207" target="M9uhc5HD6TSEB5luogaD-207" edge="1">
          <mxGeometry width="50" height="50" relative="1" as="geometry">
            <mxPoint x="520.56" y="1599.5" as="sourcePoint" />
            <mxPoint x="570.56" y="1549.5" as="targetPoint" />
          </mxGeometry>
        </mxCell>
        <mxCell id="M9uhc5HD6TSEB5luogaD-209" value="" style="endArrow=none;html=1;rounded=0;startArrow=classic;startFill=1;endFill=0;exitX=0;exitY=0.5;exitDx=0;exitDy=0;" parent="1" source="M9uhc5HD6TSEB5luogaD-207" edge="1">
          <mxGeometry width="50" height="50" relative="1" as="geometry">
            <mxPoint x="101.00000000000006" y="1635.5" as="sourcePoint" />
            <mxPoint x="206" y="1636" as="targetPoint" />
            <Array as="points">
              <mxPoint x="571.56" y="1575" />
              <mxPoint x="571.56" y="1707" />
              <mxPoint x="101.56" y="1707" />
              <mxPoint x="101.56" y="1636" />
            </Array>
          </mxGeometry>
        </mxCell>
        <mxCell id="M9uhc5HD6TSEB5luogaD-210" value="" style="endArrow=classic;html=1;rounded=0;exitX=1;exitY=0.5;exitDx=0;exitDy=0;" parent="1" edge="1">
          <mxGeometry width="50" height="50" relative="1" as="geometry">
            <mxPoint x="625.56" y="1574.5" as="sourcePoint" />
            <mxPoint x="762" y="1517" as="targetPoint" />
            <Array as="points">
              <mxPoint x="651.56" y="1575" />
              <mxPoint x="651.56" y="1517" />
            </Array>
          </mxGeometry>
        </mxCell>
        <mxCell id="M9uhc5HD6TSEB5luogaD-211" value="&lt;font style=&quot;font-size: 15px;&quot;&gt;&amp;amp;&lt;/font&gt;" style="rounded=0;whiteSpace=wrap;html=1;" parent="1" vertex="1">
          <mxGeometry x="601.56" y="1846.5" width="34" height="34" as="geometry" />
        </mxCell>
        <mxCell id="M9uhc5HD6TSEB5luogaD-212" value="" style="endArrow=none;html=1;rounded=0;entryX=0.25;entryY=0;entryDx=0;entryDy=0;exitX=0.25;exitY=1;exitDx=0;exitDy=0;" parent="1" source="M9uhc5HD6TSEB5luogaD-211" target="M9uhc5HD6TSEB5luogaD-211" edge="1">
          <mxGeometry width="50" height="50" relative="1" as="geometry">
            <mxPoint x="530.56" y="1888.5" as="sourcePoint" />
            <mxPoint x="580.56" y="1838.5" as="targetPoint" />
          </mxGeometry>
        </mxCell>
        <mxCell id="M9uhc5HD6TSEB5luogaD-213" value="" style="endArrow=none;html=1;rounded=0;startArrow=classic;startFill=1;endFill=0;exitX=0;exitY=0.5;exitDx=0;exitDy=0;" parent="1" source="M9uhc5HD6TSEB5luogaD-211" edge="1">
          <mxGeometry width="50" height="50" relative="1" as="geometry">
            <mxPoint x="111.00000000000006" y="1924.5" as="sourcePoint" />
            <mxPoint x="206" y="1925" as="targetPoint" />
            <Array as="points">
              <mxPoint x="581.56" y="1864" />
              <mxPoint x="581.56" y="1996" />
              <mxPoint x="111.56" y="1996" />
              <mxPoint x="111.56" y="1925" />
            </Array>
          </mxGeometry>
        </mxCell>
        <mxCell id="M9uhc5HD6TSEB5luogaD-214" value="" style="endArrow=classic;html=1;rounded=0;exitX=1;exitY=0.5;exitDx=0;exitDy=0;" parent="1" edge="1">
          <mxGeometry width="50" height="50" relative="1" as="geometry">
            <mxPoint x="635.56" y="1863.5" as="sourcePoint" />
            <mxPoint x="763.56" y="1806" as="targetPoint" />
            <Array as="points">
              <mxPoint x="661.56" y="1864" />
              <mxPoint x="661.56" y="1806" />
            </Array>
          </mxGeometry>
        </mxCell>
        <mxCell id="M9uhc5HD6TSEB5luogaD-218" value="&lt;font style=&quot;font-size: 15px;&quot;&gt;&amp;amp;&lt;/font&gt;" style="rounded=0;whiteSpace=wrap;html=1;" parent="1" vertex="1">
          <mxGeometry x="594.56" y="1624.5" width="34" height="34" as="geometry" />
        </mxCell>
        <mxCell id="M9uhc5HD6TSEB5luogaD-219" value="" style="endArrow=none;html=1;rounded=0;entryX=0.25;entryY=0;entryDx=0;entryDy=0;exitX=0.25;exitY=1;exitDx=0;exitDy=0;" parent="1" source="M9uhc5HD6TSEB5luogaD-218" target="M9uhc5HD6TSEB5luogaD-218" edge="1">
          <mxGeometry width="50" height="50" relative="1" as="geometry">
            <mxPoint x="523.56" y="1666.5" as="sourcePoint" />
            <mxPoint x="573.56" y="1616.5" as="targetPoint" />
          </mxGeometry>
        </mxCell>
        <mxCell id="M9uhc5HD6TSEB5luogaD-220" value="&lt;font style=&quot;font-size: 15px;&quot;&gt;&amp;amp;&lt;/font&gt;" style="rounded=0;whiteSpace=wrap;html=1;" parent="1" vertex="1">
          <mxGeometry x="601.56" y="1913.5" width="34" height="34" as="geometry" />
        </mxCell>
        <mxCell id="M9uhc5HD6TSEB5luogaD-221" value="" style="endArrow=none;html=1;rounded=0;entryX=0.25;entryY=0;entryDx=0;entryDy=0;exitX=0.25;exitY=1;exitDx=0;exitDy=0;" parent="1" source="M9uhc5HD6TSEB5luogaD-220" target="M9uhc5HD6TSEB5luogaD-220" edge="1">
          <mxGeometry width="50" height="50" relative="1" as="geometry">
            <mxPoint x="530.56" y="1955.5" as="sourcePoint" />
            <mxPoint x="580.56" y="1905.5" as="targetPoint" />
          </mxGeometry>
        </mxCell>
        <mxCell id="M9uhc5HD6TSEB5luogaD-222" style="edgeStyle=orthogonalEdgeStyle;rounded=0;orthogonalLoop=1;jettySize=auto;html=1;exitX=0;exitY=0.75;exitDx=0;exitDy=0;" parent="1" edge="1" source="M9uhc5HD6TSEB5luogaD-218">
          <mxGeometry relative="1" as="geometry">
            <mxPoint x="591.56" y="1651" as="sourcePoint" />
            <mxPoint x="207" y="1798" as="targetPoint" />
            <Array as="points">
              <mxPoint x="582" y="1650" />
              <mxPoint x="582" y="1732" />
              <mxPoint x="112" y="1732" />
              <mxPoint x="112" y="1798" />
            </Array>
          </mxGeometry>
        </mxCell>
        <mxCell id="M9uhc5HD6TSEB5luogaD-246" value="" style="rounded=0;whiteSpace=wrap;html=1;gradientColor=none;glass=0;shadow=0;" parent="1" vertex="1">
          <mxGeometry x="213.33999999999997" y="2052.5" width="155" height="90" as="geometry" />
        </mxCell>
        <mxCell id="M9uhc5HD6TSEB5luogaD-247" value="" style="endArrow=none;html=1;rounded=0;exitX=0.003;exitY=0.15;exitDx=0;exitDy=0;entryX=0.077;entryY=0;entryDx=0;entryDy=0;entryPerimeter=0;jumpSize=100;endSize=6;jumpStyle=none;exitPerimeter=0;" parent="1" source="M9uhc5HD6TSEB5luogaD-246" target="M9uhc5HD6TSEB5luogaD-246" edge="1">
          <mxGeometry width="50" height="50" relative="1" as="geometry">
            <mxPoint x="213.33999999999997" y="2065.8199999999997" as="sourcePoint" />
            <mxPoint x="227.85999999999996" y="2052.5" as="targetPoint" />
          </mxGeometry>
        </mxCell>
        <mxCell id="M9uhc5HD6TSEB5luogaD-248" value="0р." style="text;html=1;align=center;verticalAlign=middle;resizable=0;points=[];autosize=1;strokeColor=none;fillColor=none;fontSize=5;" parent="1" vertex="1">
          <mxGeometry x="209.33999999999997" y="2052.5" width="30" height="20" as="geometry" />
        </mxCell>
        <mxCell id="M9uhc5HD6TSEB5luogaD-249" value="" style="endArrow=none;html=1;rounded=0;exitX=0.002;exitY=0.635;exitDx=0;exitDy=0;exitPerimeter=0;entryX=1.005;entryY=0.786;entryDx=0;entryDy=0;entryPerimeter=0;" parent="1" edge="1">
          <mxGeometry width="50" height="50" relative="1" as="geometry">
            <mxPoint x="213.57999999999998" y="2122.6" as="sourcePoint" />
            <mxPoint x="369.1150000000001" y="2122.24" as="targetPoint" />
          </mxGeometry>
        </mxCell>
        <mxCell id="M9uhc5HD6TSEB5luogaD-250" value="3.1.1" style="text;html=1;align=center;verticalAlign=middle;resizable=0;points=[];autosize=1;strokeColor=none;fillColor=none;fontSize=8;" parent="1" vertex="1">
          <mxGeometry x="210.33999999999997" y="2123.5" width="40" height="20" as="geometry" />
        </mxCell>
        <mxCell id="M9uhc5HD6TSEB5luogaD-251" value="&lt;p style=&quot;margin: 0cm; text-indent: 35.45pt;&quot; class=&quot;MsoListParagraph&quot;&gt;Ввод сообщения пользователем&lt;br&gt;&lt;/p&gt;" style="text;html=1;align=center;verticalAlign=middle;resizable=0;points=[];autosize=1;strokeColor=none;fillColor=none;fontSize=9;" parent="1" vertex="1">
          <mxGeometry x="162.33999999999997" y="2079.5" width="210" height="20" as="geometry" />
        </mxCell>
        <mxCell id="M9uhc5HD6TSEB5luogaD-252" value="" style="endArrow=none;html=1;rounded=0;entryX=0.5;entryY=1;entryDx=0;entryDy=0;" parent="1" edge="1">
          <mxGeometry width="50" height="50" relative="1" as="geometry">
            <mxPoint x="290.78000000000003" y="2122.5" as="sourcePoint" />
            <mxPoint x="290.78000000000003" y="2142.5" as="targetPoint" />
          </mxGeometry>
        </mxCell>
        <mxCell id="M9uhc5HD6TSEB5luogaD-253" value="" style="rounded=0;whiteSpace=wrap;html=1;gradientColor=none;glass=0;shadow=0;" parent="1" vertex="1">
          <mxGeometry x="409.12" y="2051.5" width="155" height="90" as="geometry" />
        </mxCell>
        <mxCell id="M9uhc5HD6TSEB5luogaD-254" value="" style="endArrow=none;html=1;rounded=0;exitX=0.003;exitY=0.15;exitDx=0;exitDy=0;entryX=0.077;entryY=0;entryDx=0;entryDy=0;entryPerimeter=0;jumpSize=100;endSize=6;jumpStyle=none;exitPerimeter=0;" parent="1" source="M9uhc5HD6TSEB5luogaD-253" target="M9uhc5HD6TSEB5luogaD-253" edge="1">
          <mxGeometry width="50" height="50" relative="1" as="geometry">
            <mxPoint x="409.12" y="2064.8199999999997" as="sourcePoint" />
            <mxPoint x="423.64" y="2051.5" as="targetPoint" />
          </mxGeometry>
        </mxCell>
        <mxCell id="M9uhc5HD6TSEB5luogaD-255" value="0р." style="text;html=1;align=center;verticalAlign=middle;resizable=0;points=[];autosize=1;strokeColor=none;fillColor=none;fontSize=5;" parent="1" vertex="1">
          <mxGeometry x="405.12" y="2051.5" width="30" height="20" as="geometry" />
        </mxCell>
        <mxCell id="M9uhc5HD6TSEB5luogaD-256" value="" style="endArrow=none;html=1;rounded=0;exitX=0.002;exitY=0.635;exitDx=0;exitDy=0;exitPerimeter=0;entryX=1.005;entryY=0.786;entryDx=0;entryDy=0;entryPerimeter=0;" parent="1" edge="1">
          <mxGeometry width="50" height="50" relative="1" as="geometry">
            <mxPoint x="409.36" y="2121.6" as="sourcePoint" />
            <mxPoint x="564.895" y="2121.24" as="targetPoint" />
          </mxGeometry>
        </mxCell>
        <mxCell id="M9uhc5HD6TSEB5luogaD-257" value="3.1.2" style="text;html=1;align=center;verticalAlign=middle;resizable=0;points=[];autosize=1;strokeColor=none;fillColor=none;fontSize=8;" parent="1" vertex="1">
          <mxGeometry x="406.12" y="2122.5" width="40" height="20" as="geometry" />
        </mxCell>
        <mxCell id="M9uhc5HD6TSEB5luogaD-258" value="" style="endArrow=none;html=1;rounded=0;entryX=0.5;entryY=1;entryDx=0;entryDy=0;" parent="1" edge="1">
          <mxGeometry width="50" height="50" relative="1" as="geometry">
            <mxPoint x="486.56" y="2121.5" as="sourcePoint" />
            <mxPoint x="486.56" y="2141.5" as="targetPoint" />
          </mxGeometry>
        </mxCell>
        <mxCell id="M9uhc5HD6TSEB5luogaD-259" value="" style="endArrow=classic;html=1;rounded=0;exitX=1;exitY=0.5;exitDx=0;exitDy=0;" parent="1" source="M9uhc5HD6TSEB5luogaD-246" target="M9uhc5HD6TSEB5luogaD-253" edge="1">
          <mxGeometry width="50" height="50" relative="1" as="geometry">
            <mxPoint x="373.12" y="2145.5" as="sourcePoint" />
            <mxPoint x="413.12" y="2095.5" as="targetPoint" />
          </mxGeometry>
        </mxCell>
        <mxCell id="M9uhc5HD6TSEB5luogaD-260" value="" style="rounded=0;whiteSpace=wrap;html=1;gradientColor=none;glass=0;shadow=0;" parent="1" vertex="1">
          <mxGeometry x="409.12" y="2175" width="155" height="90" as="geometry" />
        </mxCell>
        <mxCell id="M9uhc5HD6TSEB5luogaD-261" value="" style="endArrow=none;html=1;rounded=0;exitX=0.003;exitY=0.15;exitDx=0;exitDy=0;entryX=0.077;entryY=0;entryDx=0;entryDy=0;entryPerimeter=0;jumpSize=100;endSize=6;jumpStyle=none;exitPerimeter=0;" parent="1" source="M9uhc5HD6TSEB5luogaD-260" target="M9uhc5HD6TSEB5luogaD-260" edge="1">
          <mxGeometry width="50" height="50" relative="1" as="geometry">
            <mxPoint x="409.12" y="2188.3199999999997" as="sourcePoint" />
            <mxPoint x="423.64" y="2175" as="targetPoint" />
          </mxGeometry>
        </mxCell>
        <mxCell id="M9uhc5HD6TSEB5luogaD-262" value="0р." style="text;html=1;align=center;verticalAlign=middle;resizable=0;points=[];autosize=1;strokeColor=none;fillColor=none;fontSize=5;" parent="1" vertex="1">
          <mxGeometry x="405.12" y="2175" width="30" height="20" as="geometry" />
        </mxCell>
        <mxCell id="M9uhc5HD6TSEB5luogaD-263" value="" style="endArrow=none;html=1;rounded=0;exitX=0.002;exitY=0.635;exitDx=0;exitDy=0;exitPerimeter=0;entryX=1.005;entryY=0.786;entryDx=0;entryDy=0;entryPerimeter=0;" parent="1" edge="1">
          <mxGeometry width="50" height="50" relative="1" as="geometry">
            <mxPoint x="409.36" y="2245.1" as="sourcePoint" />
            <mxPoint x="564.895" y="2244.74" as="targetPoint" />
          </mxGeometry>
        </mxCell>
        <mxCell id="M9uhc5HD6TSEB5luogaD-264" value="3.1.3" style="text;html=1;align=center;verticalAlign=middle;resizable=0;points=[];autosize=1;strokeColor=none;fillColor=none;fontSize=8;" parent="1" vertex="1">
          <mxGeometry x="406.12" y="2246" width="40" height="20" as="geometry" />
        </mxCell>
        <mxCell id="M9uhc5HD6TSEB5luogaD-265" value="&lt;p style=&quot;border-color: var(--border-color); margin: 0cm; text-indent: 35.45pt;&quot; class=&quot;MsoListParagraph&quot;&gt;Инициация отправки&amp;nbsp;&lt;/p&gt;&lt;p style=&quot;border-color: var(--border-color); margin: 0cm; text-indent: 35.45pt;&quot; class=&quot;MsoListParagraph&quot;&gt;сообщения пользователем&lt;/p&gt;" style="text;html=1;align=center;verticalAlign=middle;resizable=0;points=[];autosize=1;strokeColor=none;fillColor=none;fontSize=9;" parent="1" vertex="1">
          <mxGeometry x="373.12" y="2192" width="180" height="40" as="geometry" />
        </mxCell>
        <mxCell id="M9uhc5HD6TSEB5luogaD-266" value="" style="endArrow=none;html=1;rounded=0;entryX=0.5;entryY=1;entryDx=0;entryDy=0;" parent="1" edge="1">
          <mxGeometry width="50" height="50" relative="1" as="geometry">
            <mxPoint x="486.56" y="2245" as="sourcePoint" />
            <mxPoint x="486.56" y="2265" as="targetPoint" />
          </mxGeometry>
        </mxCell>
        <mxCell id="M9uhc5HD6TSEB5luogaD-267" value="" style="endArrow=classic;html=1;rounded=0;exitX=0.5;exitY=1;exitDx=0;exitDy=0;entryX=0.5;entryY=0;entryDx=0;entryDy=0;" parent="1" edge="1">
          <mxGeometry width="50" height="50" relative="1" as="geometry">
            <mxPoint x="500.61999999999995" y="2140.5" as="sourcePoint" />
            <mxPoint x="500.61999999999995" y="2174" as="targetPoint" />
          </mxGeometry>
        </mxCell>
        <mxCell id="M9uhc5HD6TSEB5luogaD-268" value="" style="rounded=0;whiteSpace=wrap;html=1;gradientColor=none;glass=0;shadow=0;" parent="1" vertex="1">
          <mxGeometry x="212.56" y="2175.5" width="155" height="90" as="geometry" />
        </mxCell>
        <mxCell id="M9uhc5HD6TSEB5luogaD-269" value="" style="endArrow=none;html=1;rounded=0;exitX=0.003;exitY=0.15;exitDx=0;exitDy=0;entryX=0.077;entryY=0;entryDx=0;entryDy=0;entryPerimeter=0;jumpSize=100;endSize=6;jumpStyle=none;exitPerimeter=0;" parent="1" source="M9uhc5HD6TSEB5luogaD-268" target="M9uhc5HD6TSEB5luogaD-268" edge="1">
          <mxGeometry width="50" height="50" relative="1" as="geometry">
            <mxPoint x="212.56" y="2188.8199999999997" as="sourcePoint" />
            <mxPoint x="227.07999999999998" y="2175.5" as="targetPoint" />
          </mxGeometry>
        </mxCell>
        <mxCell id="M9uhc5HD6TSEB5luogaD-270" value="0р." style="text;html=1;align=center;verticalAlign=middle;resizable=0;points=[];autosize=1;strokeColor=none;fillColor=none;fontSize=5;" parent="1" vertex="1">
          <mxGeometry x="208.56" y="2175.5" width="30" height="20" as="geometry" />
        </mxCell>
        <mxCell id="M9uhc5HD6TSEB5luogaD-271" value="" style="endArrow=none;html=1;rounded=0;exitX=0.002;exitY=0.635;exitDx=0;exitDy=0;exitPerimeter=0;entryX=1.005;entryY=0.786;entryDx=0;entryDy=0;entryPerimeter=0;" parent="1" edge="1">
          <mxGeometry width="50" height="50" relative="1" as="geometry">
            <mxPoint x="212.8" y="2245.6" as="sourcePoint" />
            <mxPoint x="368.3350000000001" y="2245.24" as="targetPoint" />
          </mxGeometry>
        </mxCell>
        <mxCell id="M9uhc5HD6TSEB5luogaD-272" value="3.1.4" style="text;html=1;align=center;verticalAlign=middle;resizable=0;points=[];autosize=1;strokeColor=none;fillColor=none;fontSize=8;" parent="1" vertex="1">
          <mxGeometry x="209.56" y="2246.5" width="40" height="20" as="geometry" />
        </mxCell>
        <mxCell id="M9uhc5HD6TSEB5luogaD-273" value="&lt;p style=&quot;border-color: var(--border-color); margin: 0cm; text-indent: 35.45pt;&quot; class=&quot;MsoListParagraph&quot;&gt;Отправка сообщения на сервер&lt;/p&gt;" style="text;html=1;align=center;verticalAlign=middle;resizable=0;points=[];autosize=1;strokeColor=none;fillColor=none;fontSize=9;" parent="1" vertex="1">
          <mxGeometry x="166.56" y="2204.5" width="200" height="20" as="geometry" />
        </mxCell>
        <mxCell id="M9uhc5HD6TSEB5luogaD-274" value="" style="endArrow=none;html=1;rounded=0;entryX=0.5;entryY=1;entryDx=0;entryDy=0;" parent="1" edge="1">
          <mxGeometry width="50" height="50" relative="1" as="geometry">
            <mxPoint x="290" y="2245.5" as="sourcePoint" />
            <mxPoint x="290" y="2265.5" as="targetPoint" />
          </mxGeometry>
        </mxCell>
        <mxCell id="M9uhc5HD6TSEB5luogaD-275" value="" style="endArrow=none;html=1;rounded=0;exitX=1;exitY=0.5;exitDx=0;exitDy=0;startArrow=classic;startFill=1;endFill=0;" parent="1" edge="1">
          <mxGeometry width="50" height="50" relative="1" as="geometry">
            <mxPoint x="367.56" y="2219.64" as="sourcePoint" />
            <mxPoint x="408.56" y="2219.64" as="targetPoint" />
          </mxGeometry>
        </mxCell>
        <mxCell id="M9uhc5HD6TSEB5luogaD-276" value="Сообщение пользователя" style="text;html=1;align=center;verticalAlign=middle;resizable=0;points=[];autosize=1;strokeColor=none;fillColor=none;fontSize=7;" parent="1" vertex="1">
          <mxGeometry x="101.56" y="2187" width="110" height="20" as="geometry" />
        </mxCell>
        <mxCell id="M9uhc5HD6TSEB5luogaD-277" value="Чат с пользователем" style="text;html=1;align=center;verticalAlign=middle;resizable=0;points=[];autosize=1;strokeColor=none;fillColor=none;fontSize=7;" parent="1" vertex="1">
          <mxGeometry x="117.56" y="2062.5" width="90" height="20" as="geometry" />
        </mxCell>
        <mxCell id="M9uhc5HD6TSEB5luogaD-278" value="Добавление вложений &lt;br&gt;к сообщению" style="text;html=1;align=center;verticalAlign=middle;resizable=0;points=[];autosize=1;strokeColor=none;fillColor=none;fontSize=9;" parent="1" vertex="1">
          <mxGeometry x="425.56" y="2069.5" width="120" height="40" as="geometry" />
        </mxCell>
        <mxCell id="M9uhc5HD6TSEB5luogaD-279" value="" style="rounded=0;whiteSpace=wrap;html=1;gradientColor=none;glass=0;shadow=0;" parent="1" vertex="1">
          <mxGeometry x="768.3399999999999" y="2051" width="155" height="90" as="geometry" />
        </mxCell>
        <mxCell id="M9uhc5HD6TSEB5luogaD-280" value="" style="endArrow=none;html=1;rounded=0;exitX=0.003;exitY=0.15;exitDx=0;exitDy=0;entryX=0.077;entryY=0;entryDx=0;entryDy=0;entryPerimeter=0;jumpSize=100;endSize=6;jumpStyle=none;exitPerimeter=0;" parent="1" source="M9uhc5HD6TSEB5luogaD-279" target="M9uhc5HD6TSEB5luogaD-279" edge="1">
          <mxGeometry width="50" height="50" relative="1" as="geometry">
            <mxPoint x="768.3399999999999" y="2064.3199999999997" as="sourcePoint" />
            <mxPoint x="782.8599999999999" y="2051" as="targetPoint" />
          </mxGeometry>
        </mxCell>
        <mxCell id="M9uhc5HD6TSEB5luogaD-281" value="0р." style="text;html=1;align=center;verticalAlign=middle;resizable=0;points=[];autosize=1;strokeColor=none;fillColor=none;fontSize=5;" parent="1" vertex="1">
          <mxGeometry x="764.3399999999999" y="2051" width="30" height="20" as="geometry" />
        </mxCell>
        <mxCell id="M9uhc5HD6TSEB5luogaD-282" value="" style="endArrow=none;html=1;rounded=0;exitX=0.002;exitY=0.635;exitDx=0;exitDy=0;exitPerimeter=0;entryX=1.005;entryY=0.786;entryDx=0;entryDy=0;entryPerimeter=0;" parent="1" edge="1">
          <mxGeometry width="50" height="50" relative="1" as="geometry">
            <mxPoint x="768.5799999999999" y="2121.1" as="sourcePoint" />
            <mxPoint x="924.115" y="2120.74" as="targetPoint" />
          </mxGeometry>
        </mxCell>
        <mxCell id="M9uhc5HD6TSEB5luogaD-283" value="3.2.1" style="text;html=1;align=center;verticalAlign=middle;resizable=0;points=[];autosize=1;strokeColor=none;fillColor=none;fontSize=8;" parent="1" vertex="1">
          <mxGeometry x="765.3399999999999" y="2122" width="40" height="20" as="geometry" />
        </mxCell>
        <mxCell id="M9uhc5HD6TSEB5luogaD-284" value="&lt;p style=&quot;margin: 0cm; text-indent: 35.45pt;&quot; class=&quot;MsoListParagraph&quot;&gt;Обработка и скачивание текста и&amp;nbsp;&lt;/p&gt;&lt;p style=&quot;margin: 0cm; text-indent: 35.45pt;&quot; class=&quot;MsoListParagraph&quot;&gt;вложений сообщения&lt;/p&gt;" style="text;html=1;align=center;verticalAlign=middle;resizable=0;points=[];autosize=1;strokeColor=none;fillColor=none;fontSize=9;" parent="1" vertex="1">
          <mxGeometry x="717.3399999999999" y="2068" width="210" height="40" as="geometry" />
        </mxCell>
        <mxCell id="M9uhc5HD6TSEB5luogaD-285" value="" style="endArrow=none;html=1;rounded=0;entryX=0.5;entryY=1;entryDx=0;entryDy=0;" parent="1" edge="1">
          <mxGeometry width="50" height="50" relative="1" as="geometry">
            <mxPoint x="845.78" y="2121" as="sourcePoint" />
            <mxPoint x="845.78" y="2141" as="targetPoint" />
          </mxGeometry>
        </mxCell>
        <mxCell id="M9uhc5HD6TSEB5luogaD-286" value="" style="rounded=0;whiteSpace=wrap;html=1;gradientColor=none;glass=0;shadow=0;" parent="1" vertex="1">
          <mxGeometry x="964.1199999999999" y="2050" width="155" height="90" as="geometry" />
        </mxCell>
        <mxCell id="M9uhc5HD6TSEB5luogaD-287" value="" style="endArrow=none;html=1;rounded=0;exitX=0.003;exitY=0.15;exitDx=0;exitDy=0;entryX=0.077;entryY=0;entryDx=0;entryDy=0;entryPerimeter=0;jumpSize=100;endSize=6;jumpStyle=none;exitPerimeter=0;" parent="1" source="M9uhc5HD6TSEB5luogaD-286" target="M9uhc5HD6TSEB5luogaD-286" edge="1">
          <mxGeometry width="50" height="50" relative="1" as="geometry">
            <mxPoint x="964.1199999999999" y="2063.3199999999997" as="sourcePoint" />
            <mxPoint x="978.6399999999999" y="2050" as="targetPoint" />
          </mxGeometry>
        </mxCell>
        <mxCell id="M9uhc5HD6TSEB5luogaD-288" value="0р." style="text;html=1;align=center;verticalAlign=middle;resizable=0;points=[];autosize=1;strokeColor=none;fillColor=none;fontSize=5;" parent="1" vertex="1">
          <mxGeometry x="960.1199999999999" y="2050" width="30" height="20" as="geometry" />
        </mxCell>
        <mxCell id="M9uhc5HD6TSEB5luogaD-289" value="" style="endArrow=none;html=1;rounded=0;exitX=0.002;exitY=0.635;exitDx=0;exitDy=0;exitPerimeter=0;entryX=1.005;entryY=0.786;entryDx=0;entryDy=0;entryPerimeter=0;" parent="1" edge="1">
          <mxGeometry width="50" height="50" relative="1" as="geometry">
            <mxPoint x="964.3599999999999" y="2120.1" as="sourcePoint" />
            <mxPoint x="1119.895" y="2119.74" as="targetPoint" />
          </mxGeometry>
        </mxCell>
        <mxCell id="M9uhc5HD6TSEB5luogaD-290" value="3.2.2" style="text;html=1;align=center;verticalAlign=middle;resizable=0;points=[];autosize=1;strokeColor=none;fillColor=none;fontSize=8;" parent="1" vertex="1">
          <mxGeometry x="961.1199999999999" y="2121" width="40" height="20" as="geometry" />
        </mxCell>
        <mxCell id="M9uhc5HD6TSEB5luogaD-291" value="" style="endArrow=none;html=1;rounded=0;entryX=0.5;entryY=1;entryDx=0;entryDy=0;" parent="1" edge="1">
          <mxGeometry width="50" height="50" relative="1" as="geometry">
            <mxPoint x="1041.56" y="2120" as="sourcePoint" />
            <mxPoint x="1041.56" y="2140" as="targetPoint" />
          </mxGeometry>
        </mxCell>
        <mxCell id="M9uhc5HD6TSEB5luogaD-292" value="" style="endArrow=classic;html=1;rounded=0;exitX=1;exitY=0.5;exitDx=0;exitDy=0;" parent="1" source="M9uhc5HD6TSEB5luogaD-279" target="M9uhc5HD6TSEB5luogaD-286" edge="1">
          <mxGeometry width="50" height="50" relative="1" as="geometry">
            <mxPoint x="928.1199999999999" y="2144" as="sourcePoint" />
            <mxPoint x="968.1199999999999" y="2094" as="targetPoint" />
          </mxGeometry>
        </mxCell>
        <mxCell id="M9uhc5HD6TSEB5luogaD-293" value="" style="rounded=0;whiteSpace=wrap;html=1;gradientColor=none;glass=0;shadow=0;" parent="1" vertex="1">
          <mxGeometry x="964.1199999999999" y="2173.5" width="155" height="90" as="geometry" />
        </mxCell>
        <mxCell id="M9uhc5HD6TSEB5luogaD-294" value="" style="endArrow=none;html=1;rounded=0;exitX=0.003;exitY=0.15;exitDx=0;exitDy=0;entryX=0.077;entryY=0;entryDx=0;entryDy=0;entryPerimeter=0;jumpSize=100;endSize=6;jumpStyle=none;exitPerimeter=0;" parent="1" source="M9uhc5HD6TSEB5luogaD-293" target="M9uhc5HD6TSEB5luogaD-293" edge="1">
          <mxGeometry width="50" height="50" relative="1" as="geometry">
            <mxPoint x="964.1199999999999" y="2186.8199999999997" as="sourcePoint" />
            <mxPoint x="978.6399999999999" y="2173.5" as="targetPoint" />
          </mxGeometry>
        </mxCell>
        <mxCell id="M9uhc5HD6TSEB5luogaD-295" value="0р." style="text;html=1;align=center;verticalAlign=middle;resizable=0;points=[];autosize=1;strokeColor=none;fillColor=none;fontSize=5;" parent="1" vertex="1">
          <mxGeometry x="960.1199999999999" y="2173.5" width="30" height="20" as="geometry" />
        </mxCell>
        <mxCell id="M9uhc5HD6TSEB5luogaD-296" value="" style="endArrow=none;html=1;rounded=0;exitX=0.002;exitY=0.635;exitDx=0;exitDy=0;exitPerimeter=0;entryX=1.005;entryY=0.786;entryDx=0;entryDy=0;entryPerimeter=0;" parent="1" edge="1">
          <mxGeometry width="50" height="50" relative="1" as="geometry">
            <mxPoint x="964.3599999999999" y="2243.6" as="sourcePoint" />
            <mxPoint x="1119.895" y="2243.24" as="targetPoint" />
          </mxGeometry>
        </mxCell>
        <mxCell id="M9uhc5HD6TSEB5luogaD-297" value="3.2.3" style="text;html=1;align=center;verticalAlign=middle;resizable=0;points=[];autosize=1;strokeColor=none;fillColor=none;fontSize=8;" parent="1" vertex="1">
          <mxGeometry x="961.1199999999999" y="2244.5" width="40" height="20" as="geometry" />
        </mxCell>
        <mxCell id="M9uhc5HD6TSEB5luogaD-298" value="&lt;p style=&quot;border-color: var(--border-color); margin: 0cm; text-indent: 35.45pt;&quot; class=&quot;MsoListParagraph&quot;&gt;Добавление сообщения в БД&lt;/p&gt;" style="text;html=1;align=center;verticalAlign=middle;resizable=0;points=[];autosize=1;strokeColor=none;fillColor=none;fontSize=9;" parent="1" vertex="1">
          <mxGeometry x="923.1199999999999" y="2200.5" width="190" height="20" as="geometry" />
        </mxCell>
        <mxCell id="M9uhc5HD6TSEB5luogaD-299" value="" style="endArrow=none;html=1;rounded=0;entryX=0.5;entryY=1;entryDx=0;entryDy=0;" parent="1" edge="1">
          <mxGeometry width="50" height="50" relative="1" as="geometry">
            <mxPoint x="1041.56" y="2243.5" as="sourcePoint" />
            <mxPoint x="1041.56" y="2263.5" as="targetPoint" />
          </mxGeometry>
        </mxCell>
        <mxCell id="M9uhc5HD6TSEB5luogaD-300" value="" style="endArrow=classic;html=1;rounded=0;exitX=0.5;exitY=1;exitDx=0;exitDy=0;entryX=0.5;entryY=0;entryDx=0;entryDy=0;" parent="1" edge="1">
          <mxGeometry width="50" height="50" relative="1" as="geometry">
            <mxPoint x="1055.62" y="2139" as="sourcePoint" />
            <mxPoint x="1055.62" y="2172.5" as="targetPoint" />
          </mxGeometry>
        </mxCell>
        <mxCell id="M9uhc5HD6TSEB5luogaD-301" value="" style="rounded=0;whiteSpace=wrap;html=1;gradientColor=none;glass=0;shadow=0;" parent="1" vertex="1">
          <mxGeometry x="767.56" y="2174" width="155" height="90" as="geometry" />
        </mxCell>
        <mxCell id="M9uhc5HD6TSEB5luogaD-302" value="" style="endArrow=none;html=1;rounded=0;exitX=0.003;exitY=0.15;exitDx=0;exitDy=0;entryX=0.077;entryY=0;entryDx=0;entryDy=0;entryPerimeter=0;jumpSize=100;endSize=6;jumpStyle=none;exitPerimeter=0;" parent="1" source="M9uhc5HD6TSEB5luogaD-301" target="M9uhc5HD6TSEB5luogaD-301" edge="1">
          <mxGeometry width="50" height="50" relative="1" as="geometry">
            <mxPoint x="767.56" y="2187.3199999999997" as="sourcePoint" />
            <mxPoint x="782.0799999999999" y="2174" as="targetPoint" />
          </mxGeometry>
        </mxCell>
        <mxCell id="M9uhc5HD6TSEB5luogaD-303" value="0р." style="text;html=1;align=center;verticalAlign=middle;resizable=0;points=[];autosize=1;strokeColor=none;fillColor=none;fontSize=5;" parent="1" vertex="1">
          <mxGeometry x="763.56" y="2174" width="30" height="20" as="geometry" />
        </mxCell>
        <mxCell id="M9uhc5HD6TSEB5luogaD-304" value="" style="endArrow=none;html=1;rounded=0;exitX=0.002;exitY=0.635;exitDx=0;exitDy=0;exitPerimeter=0;entryX=1.005;entryY=0.786;entryDx=0;entryDy=0;entryPerimeter=0;" parent="1" edge="1">
          <mxGeometry width="50" height="50" relative="1" as="geometry">
            <mxPoint x="767.8" y="2244.1" as="sourcePoint" />
            <mxPoint x="923.335" y="2243.74" as="targetPoint" />
          </mxGeometry>
        </mxCell>
        <mxCell id="M9uhc5HD6TSEB5luogaD-305" value="3.2.4" style="text;html=1;align=center;verticalAlign=middle;resizable=0;points=[];autosize=1;strokeColor=none;fillColor=none;fontSize=8;" parent="1" vertex="1">
          <mxGeometry x="764.56" y="2245" width="40" height="20" as="geometry" />
        </mxCell>
        <mxCell id="M9uhc5HD6TSEB5luogaD-306" value="&lt;p style=&quot;border-color: var(--border-color); margin: 0cm; text-indent: 35.45pt;&quot; class=&quot;MsoListParagraph&quot;&gt;Отправка сообщения и&amp;nbsp;&lt;/p&gt;&lt;p style=&quot;border-color: var(--border-color); margin: 0cm; text-indent: 35.45pt;&quot; class=&quot;MsoListParagraph&quot;&gt;уведомления адресату&lt;br&gt;&lt;/p&gt;" style="text;html=1;align=center;verticalAlign=middle;resizable=0;points=[];autosize=1;strokeColor=none;fillColor=none;fontSize=9;" parent="1" vertex="1">
          <mxGeometry x="736.56" y="2193" width="170" height="40" as="geometry" />
        </mxCell>
        <mxCell id="M9uhc5HD6TSEB5luogaD-307" value="" style="endArrow=none;html=1;rounded=0;entryX=0.5;entryY=1;entryDx=0;entryDy=0;" parent="1" edge="1">
          <mxGeometry width="50" height="50" relative="1" as="geometry">
            <mxPoint x="845" y="2244" as="sourcePoint" />
            <mxPoint x="845" y="2264" as="targetPoint" />
          </mxGeometry>
        </mxCell>
        <mxCell id="M9uhc5HD6TSEB5luogaD-308" value="" style="endArrow=none;html=1;rounded=0;exitX=1;exitY=0.5;exitDx=0;exitDy=0;startArrow=classic;startFill=1;endFill=0;" parent="1" edge="1">
          <mxGeometry width="50" height="50" relative="1" as="geometry">
            <mxPoint x="922.56" y="2218.14" as="sourcePoint" />
            <mxPoint x="963.56" y="2218.14" as="targetPoint" />
          </mxGeometry>
        </mxCell>
        <mxCell id="M9uhc5HD6TSEB5luogaD-309" value="" style="endArrow=none;html=1;rounded=0;entryX=0;entryY=0.5;entryDx=0;entryDy=0;startArrow=classic;startFill=1;endFill=0;exitX=1;exitY=0.5;exitDx=0;exitDy=0;" parent="1" edge="1">
          <mxGeometry width="50" height="50" relative="1" as="geometry">
            <mxPoint x="641.56" y="2222.5" as="sourcePoint" />
            <mxPoint x="767.56" y="2222.5" as="targetPoint" />
          </mxGeometry>
        </mxCell>
        <mxCell id="M9uhc5HD6TSEB5luogaD-310" value="Данные о сообщении" style="text;html=1;align=center;verticalAlign=middle;resizable=0;points=[];autosize=1;strokeColor=none;fillColor=none;fontSize=7;" parent="1" vertex="1">
          <mxGeometry x="667.56" y="2068.5" width="90" height="20" as="geometry" />
        </mxCell>
        <mxCell id="M9uhc5HD6TSEB5luogaD-311" value="Проверка сообщения &lt;br&gt;на соблюдение &lt;br&gt;правил платформы" style="text;html=1;align=center;verticalAlign=middle;resizable=0;points=[];autosize=1;strokeColor=none;fillColor=none;fontSize=9;" parent="1" vertex="1">
          <mxGeometry x="985.56" y="2063" width="110" height="50" as="geometry" />
        </mxCell>
        <mxCell id="M9uhc5HD6TSEB5luogaD-312" value="Сообщение, отправленное &lt;br&gt;получателю" style="text;html=1;align=center;verticalAlign=middle;resizable=0;points=[];autosize=1;strokeColor=none;fillColor=none;fontSize=7;" parent="1" vertex="1">
          <mxGeometry x="652.56" y="2191.5" width="110" height="30" as="geometry" />
        </mxCell>
        <mxCell id="M9uhc5HD6TSEB5luogaD-313" value="&lt;font style=&quot;font-size: 15px;&quot;&gt;&amp;amp;&lt;/font&gt;" style="rounded=0;whiteSpace=wrap;html=1;" parent="1" vertex="1">
          <mxGeometry x="607.56" y="2138.5" width="34" height="34" as="geometry" />
        </mxCell>
        <mxCell id="M9uhc5HD6TSEB5luogaD-314" value="" style="endArrow=none;html=1;rounded=0;entryX=0.25;entryY=0;entryDx=0;entryDy=0;exitX=0.25;exitY=1;exitDx=0;exitDy=0;" parent="1" source="M9uhc5HD6TSEB5luogaD-313" target="M9uhc5HD6TSEB5luogaD-313" edge="1">
          <mxGeometry width="50" height="50" relative="1" as="geometry">
            <mxPoint x="536.56" y="2180.5" as="sourcePoint" />
            <mxPoint x="586.56" y="2130.5" as="targetPoint" />
          </mxGeometry>
        </mxCell>
        <mxCell id="M9uhc5HD6TSEB5luogaD-315" value="" style="endArrow=none;html=1;rounded=0;startArrow=classic;startFill=1;endFill=0;exitX=0;exitY=0.5;exitDx=0;exitDy=0;" parent="1" source="M9uhc5HD6TSEB5luogaD-313" edge="1">
          <mxGeometry width="50" height="50" relative="1" as="geometry">
            <mxPoint x="117.00000000000006" y="2216.5" as="sourcePoint" />
            <mxPoint x="212" y="2217" as="targetPoint" />
            <Array as="points">
              <mxPoint x="587.56" y="2156" />
              <mxPoint x="587.56" y="2288" />
              <mxPoint x="117.56" y="2288" />
              <mxPoint x="117.56" y="2217" />
            </Array>
          </mxGeometry>
        </mxCell>
        <mxCell id="M9uhc5HD6TSEB5luogaD-316" value="" style="endArrow=classic;html=1;rounded=0;exitX=1;exitY=0.5;exitDx=0;exitDy=0;" parent="1" edge="1">
          <mxGeometry width="50" height="50" relative="1" as="geometry">
            <mxPoint x="641.56" y="2155.5" as="sourcePoint" />
            <mxPoint x="769.56" y="2098" as="targetPoint" />
            <Array as="points">
              <mxPoint x="667.56" y="2156" />
              <mxPoint x="667.56" y="2098" />
            </Array>
          </mxGeometry>
        </mxCell>
        <mxCell id="M9uhc5HD6TSEB5luogaD-319" style="edgeStyle=orthogonalEdgeStyle;rounded=0;orthogonalLoop=1;jettySize=auto;html=1;entryX=0.003;entryY=0.415;entryDx=0;entryDy=0;entryPerimeter=0;" parent="1" target="M9uhc5HD6TSEB5luogaD-246" edge="1">
          <mxGeometry relative="1" as="geometry">
            <mxPoint x="601.56" y="1938.94" as="sourcePoint" />
            <mxPoint x="270" y="2030" as="targetPoint" />
            <Array as="points">
              <mxPoint x="592" y="1939" />
              <mxPoint x="592" y="2020" />
              <mxPoint x="122" y="2020" />
              <mxPoint x="122" y="2090" />
            </Array>
          </mxGeometry>
        </mxCell>
      </root>
    </mxGraphModel>
  </diagram>
</mxfile>
